%TF.GenerationSoftware,KiCad,Pcbnew,9.0.0*%
%TF.CreationDate,2025-04-24T22:16:00-04:00*%
%TF.ProjectId,SeniorProject,53656e69-6f72-4507-926f-6a6563742e6b,rev?*%
%TF.SameCoordinates,Original*%
%TF.FileFunction,Copper,L2,Bot*%
%TF.FilePolarity,Positive*%
%FSLAX46Y46*%
G04 Gerber Fmt 4.6, Leading zero omitted, Abs format (unit mm)*
G04 Created by KiCad (PCBNEW 9.0.0) date 2025-04-24 22:16:00*
%MOMM*%
%LPD*%
G01*
G04 APERTURE LIST*
%TA.AperFunction,ComponentPad*%
%ADD10C,1.530000*%
%TD*%
%TA.AperFunction,ViaPad*%
%ADD11C,0.600000*%
%TD*%
%TA.AperFunction,Conductor*%
%ADD12C,0.127000*%
%TD*%
G04 APERTURE END LIST*
D10*
%TO.P,U1,0,0*%
%TO.N,unconnected-(U1-Pad0)*%
X112000000Y-82820000D03*
%TO.P,U1,1,1*%
%TO.N,unconnected-(U1-Pad1)*%
X112000000Y-85360000D03*
%TO.P,U1,2,2*%
%TO.N,IRQ*%
X112000000Y-87900000D03*
%TO.P,U1,3,3*%
%TO.N,unconnected-(U1-Pad3)*%
X112000000Y-90440000D03*
%TO.P,U1,3.3V_1,3.3V_1*%
%TO.N,unconnected-(U1-Pad3.3V_1)*%
X117080000Y-113300000D03*
%TO.P,U1,3.3V_2,3.3V_2*%
%TO.N,unconnected-(U1-Pad3.3V_2)*%
X127240000Y-85360000D03*
%TO.P,U1,4,4*%
%TO.N,unconnected-(U1-Pad4)*%
X112000000Y-92980000D03*
%TO.P,U1,5,5*%
%TO.N,Motor*%
X112000000Y-95520000D03*
%TO.P,U1,6,6*%
%TO.N,unconnected-(U1-Pad6)*%
X112000000Y-98060000D03*
%TO.P,U1,7,7*%
%TO.N,unconnected-(U1-Pad7)*%
X112000000Y-100600000D03*
%TO.P,U1,8,8*%
%TO.N,unconnected-(U1-Pad8)*%
X112000000Y-103140000D03*
%TO.P,U1,9,9*%
%TO.N,unconnected-(U1-Pad9)*%
X112000000Y-105680000D03*
%TO.P,U1,10,10*%
%TO.N,unconnected-(U1-Pad10)*%
X112000000Y-108220000D03*
%TO.P,U1,11,11*%
%TO.N,unconnected-(U1-Pad11)*%
X112000000Y-110760000D03*
%TO.P,U1,12,12*%
%TO.N,unconnected-(U1-Pad12)*%
X112000000Y-113300000D03*
%TO.P,U1,13,13*%
%TO.N,unconnected-(U1-Pad13)*%
X127240000Y-113300000D03*
%TO.P,U1,14,14*%
%TO.N,PD_SCK*%
X127240000Y-110760000D03*
%TO.P,U1,15,15*%
%TO.N,DOUT*%
X127240000Y-108220000D03*
%TO.P,U1,16,16*%
%TO.N,unconnected-(U1-Pad16)*%
X127240000Y-105680000D03*
%TO.P,U1,17,17*%
%TO.N,unconnected-(U1-Pad17)*%
X127240000Y-103140000D03*
%TO.P,U1,18,18*%
%TO.N,SDA*%
X127240000Y-100600000D03*
%TO.P,U1,19,19*%
%TO.N,SCL*%
X127240000Y-98060000D03*
%TO.P,U1,20,20*%
%TO.N,unconnected-(U1-Pad20)*%
X127240000Y-95520000D03*
%TO.P,U1,21,21*%
%TO.N,unconnected-(U1-Pad21)*%
X127240000Y-92980000D03*
%TO.P,U1,22,22*%
%TO.N,unconnected-(U1-Pad22)*%
X127240000Y-90440000D03*
%TO.P,U1,23,23*%
%TO.N,unconnected-(U1-Pad23)*%
X127240000Y-87900000D03*
%TO.P,U1,G1,G1*%
%TO.N,Motor*%
X112000000Y-80280000D03*
%TO.P,U1,G2,G2*%
%TO.N,GND*%
X119620000Y-113300000D03*
%TO.P,U1,G3,G3*%
%TO.N,3V3*%
X127240000Y-82820000D03*
%TO.P,U1,ON-OFF,ON/OFF*%
%TO.N,unconnected-(U1-ON{slash}OFF-PadON-OFF)*%
X124700000Y-113300000D03*
%TO.P,U1,PGM,PROGRAM*%
%TO.N,unconnected-(U1-PROGRAM-PadPGM)*%
X122160000Y-113300000D03*
%TO.P,U1,VBAT,VBAT*%
%TO.N,unconnected-(U1-PadVBAT)*%
X114540000Y-113300000D03*
%TO.P,U1,VIN,VIN*%
%TO.N,5V*%
X127240000Y-80280000D03*
%TD*%
D11*
%TO.N,GND*%
X141300000Y-94500000D03*
X140800000Y-86900000D03*
%TO.N,E+*%
X138600000Y-90500000D03*
%TO.N,PD_SCK*%
X137500000Y-99400000D03*
%TO.N,DOUT*%
X137100000Y-97100000D03*
%TO.N,A+*%
X132500000Y-101000000D03*
X120250000Y-81000000D03*
%TO.N,GND*%
X121000000Y-76250000D03*
X115250000Y-69250000D03*
%TO.N,5V*%
X130263500Y-97500000D03*
%TO.N,E+*%
X136400000Y-94400000D03*
%TO.N,5V*%
X136800000Y-91500000D03*
%TO.N,IRQ*%
X132650000Y-75900000D03*
%TO.N,SDA*%
X135950000Y-76000000D03*
%TO.N,SCL*%
X134350000Y-75900000D03*
%TO.N,GND*%
X131250000Y-73200000D03*
X138450000Y-73800000D03*
X136050000Y-72700000D03*
%TO.N,3V3*%
X135950000Y-79000000D03*
%TD*%
D12*
%TO.N,GND*%
X140800000Y-86900000D02*
X140800000Y-94000000D01*
X140800000Y-94000000D02*
X141300000Y-94500000D01*
%TO.N,E+*%
X138600000Y-90500000D02*
X138600000Y-92200000D01*
X138600000Y-92200000D02*
X136400000Y-94400000D01*
%TO.N,PD_SCK*%
X137500000Y-100700000D02*
X127300000Y-110900000D01*
X137500000Y-99400000D02*
X137500000Y-100700000D01*
%TO.N,DOUT*%
X137100000Y-98500000D02*
X127300000Y-108300000D01*
X137100000Y-97100000D02*
X137100000Y-98500000D01*
%TO.N,A+*%
X131700000Y-101800000D02*
X132500000Y-101000000D01*
X126331671Y-101800000D02*
X131700000Y-101800000D01*
X120250000Y-95718329D02*
X126331671Y-101800000D01*
X120250000Y-81000000D02*
X120250000Y-95718329D01*
%TO.N,GND*%
X121000000Y-75000000D02*
X115250000Y-69250000D01*
X121000000Y-76250000D02*
X121000000Y-75000000D01*
%TO.N,5V*%
X130263500Y-97500000D02*
X130800000Y-97500000D01*
X130800000Y-97500000D02*
X136800000Y-91500000D01*
%TO.N,IRQ*%
X112100000Y-87900000D02*
X112200000Y-88000000D01*
X124100000Y-75900000D02*
X112100000Y-87900000D01*
X132650000Y-75900000D02*
X124100000Y-75900000D01*
%TO.N,SCL*%
X138600000Y-86700000D02*
X127200000Y-98100000D01*
X138600000Y-77628000D02*
X138600000Y-86700000D01*
X127200000Y-98100000D02*
X127300000Y-98100000D01*
X135840186Y-77628000D02*
X138600000Y-77628000D01*
X134350000Y-76137814D02*
X135840186Y-77628000D01*
X134350000Y-75900000D02*
X134350000Y-76137814D01*
%TO.N,SDA*%
X135976048Y-77300000D02*
X135950000Y-77273952D01*
X139000000Y-86800000D02*
X139000000Y-77300000D01*
X139000000Y-77300000D02*
X135976048Y-77300000D01*
X129700000Y-99600000D02*
X129700000Y-96100000D01*
X129700000Y-96100000D02*
X139000000Y-86800000D01*
X135950000Y-77273952D02*
X135950000Y-76000000D01*
X128700000Y-100600000D02*
X129700000Y-99600000D01*
X127300000Y-100600000D02*
X128700000Y-100600000D01*
%TO.N,3V3*%
X132130000Y-82820000D02*
X135950000Y-79000000D01*
X127240000Y-82820000D02*
X132130000Y-82820000D01*
%TO.N,GND*%
X138450000Y-73800000D02*
X136050000Y-73800000D01*
X131850000Y-73800000D02*
X131250000Y-73200000D01*
X136050000Y-73800000D02*
X131850000Y-73800000D01*
X136050000Y-73800000D02*
X136050000Y-72700000D01*
%TD*%
M02*
