M48
; DRILL file {KiCad 9.0.0} date 2025-04-24T22:15:58-0400
; FORMAT={-:-/ absolute / metric / decimal}
; #@! TF.CreationDate,2025-04-24T22:15:58-04:00
; #@! TF.GenerationSoftware,Kicad,Pcbnew,9.0.0
; #@! TF.FileFunction,Plated,1,2,PTH
FMAT,2
METRIC
; #@! TA.AperFunction,Plated,PTH,ViaDrill
T1C0.300
; #@! TA.AperFunction,Plated,PTH,ComponentDrill
T2C1.020
%
G90
G05
T1
X115.25Y-69.25
X120.25Y-81.0
X121.0Y-76.25
X130.263Y-97.5
X131.25Y-73.2
X132.5Y-101.0
X132.65Y-75.9
X134.35Y-75.9
X135.95Y-76.0
X135.95Y-79.0
X136.05Y-72.7
X136.4Y-94.4
X136.8Y-91.5
X137.1Y-97.1
X137.5Y-99.4
X138.45Y-73.8
X138.6Y-90.5
X140.8Y-86.9
X141.3Y-94.5
T2
X112.0Y-80.28
X112.0Y-82.82
X112.0Y-85.36
X112.0Y-87.9
X112.0Y-90.44
X112.0Y-92.98
X112.0Y-95.52
X112.0Y-98.06
X112.0Y-100.6
X112.0Y-103.14
X112.0Y-105.68
X112.0Y-108.22
X112.0Y-110.76
X112.0Y-113.3
X114.54Y-113.3
X117.08Y-113.3
X119.62Y-113.3
X122.16Y-113.3
X124.7Y-113.3
X127.24Y-80.28
X127.24Y-82.82
X127.24Y-85.36
X127.24Y-87.9
X127.24Y-90.44
X127.24Y-92.98
X127.24Y-95.52
X127.24Y-98.06
X127.24Y-100.6
X127.24Y-103.14
X127.24Y-105.68
X127.24Y-108.22
X127.24Y-110.76
X127.24Y-113.3
M30
