%TF.GenerationSoftware,KiCad,Pcbnew,9.0.0*%
%TF.CreationDate,2025-04-18T16:03:12-04:00*%
%TF.ProjectId,SeniorProjectTouchpad,53656e69-6f72-4507-926f-6a656374546f,rev?*%
%TF.SameCoordinates,Original*%
%TF.FileFunction,Copper,L1,Top*%
%TF.FilePolarity,Positive*%
%FSLAX46Y46*%
G04 Gerber Fmt 4.6, Leading zero omitted, Abs format (unit mm)*
G04 Created by KiCad (PCBNEW 9.0.0) date 2025-04-18 16:03:12*
%MOMM*%
%LPD*%
G01*
G04 APERTURE LIST*
%TA.AperFunction,SMDPad,CuDef*%
%ADD10R,1.700000X1.200000*%
%TD*%
%TA.AperFunction,SMDPad,CuDef*%
%ADD11R,1.100000X0.500000*%
%TD*%
%TA.AperFunction,ViaPad*%
%ADD12C,0.600000*%
%TD*%
%TA.AperFunction,Conductor*%
%ADD13C,0.200000*%
%TD*%
G04 APERTURE END LIST*
D10*
%TO.P,J1,14,MP2*%
%TO.N,unconnected-(J1-MP2-Pad14)*%
X154500000Y-118900000D03*
%TO.P,J1,13,MP1*%
%TO.N,unconnected-(J1-MP1-Pad13)*%
X154500000Y-107500000D03*
D11*
%TO.P,J1,12,12*%
%TO.N,unconnected-(J1-Pad12)*%
X153100000Y-117600000D03*
%TO.P,J1,11,11*%
%TO.N,unconnected-(J1-Pad11)*%
X153100000Y-116800000D03*
%TO.P,J1,10,10*%
%TO.N,unconnected-(J1-Pad10)*%
X153100000Y-116000000D03*
%TO.P,J1,9,9*%
%TO.N,unconnected-(J1-Pad9)*%
X153100000Y-115200000D03*
%TO.P,J1,8,8*%
%TO.N,unconnected-(J1-Pad8)*%
X153100000Y-114400000D03*
%TO.P,J1,7,7*%
%TO.N,unconnected-(J1-Pad7)*%
X153100000Y-113600000D03*
%TO.P,J1,6,6*%
%TO.N,unconnected-(J1-Pad6)*%
X153100000Y-112800000D03*
%TO.P,J1,5,5*%
%TO.N,unconnected-(J1-Pad5)*%
X153100000Y-112000000D03*
%TO.P,J1,4,4*%
%TO.N,unconnected-(J1-Pad4)*%
X153100000Y-111200000D03*
%TO.P,J1,3,3*%
%TO.N,unconnected-(J1-Pad3)*%
X153100000Y-110400000D03*
%TO.P,J1,2,2*%
%TO.N,unconnected-(J1-Pad2)*%
X153100000Y-109600000D03*
%TO.P,J1,1,1*%
%TO.N,unconnected-(J1-Pad1)*%
X153100000Y-108800000D03*
%TD*%
D12*
%TO.N,unconnected-(J1-Pad3)*%
X140000000Y-120100000D03*
%TO.N,unconnected-(J1-Pad4)*%
X146000000Y-120100000D03*
%TO.N,unconnected-(J1-Pad2)*%
X134000000Y-120100000D03*
%TO.N,unconnected-(J1-Pad4)*%
X146000000Y-114100000D03*
%TO.N,unconnected-(J1-Pad3)*%
X140000000Y-108100000D03*
%TO.N,unconnected-(J1-Pad5)*%
X152000000Y-120100000D03*
%TO.N,unconnected-(J1-Pad4)*%
X146000000Y-126100000D03*
%TO.N,unconnected-(J1-Pad5)*%
X152000000Y-108100000D03*
%TO.N,unconnected-(J1-Pad3)*%
X140000000Y-126100000D03*
%TO.N,unconnected-(J1-Pad2)*%
X134000000Y-126100000D03*
%TO.N,unconnected-(J1-Pad4)*%
X146000000Y-108100000D03*
%TO.N,unconnected-(J1-Pad1)*%
X128000000Y-120100000D03*
%TO.N,unconnected-(J1-Pad2)*%
X134000000Y-114100000D03*
%TO.N,unconnected-(J1-Pad1)*%
X128000000Y-114100000D03*
%TO.N,unconnected-(J1-Pad2)*%
X134000000Y-108100000D03*
%TO.N,unconnected-(J1-Pad3)*%
X140000000Y-114100000D03*
%TO.N,unconnected-(J1-Pad1)*%
X128000000Y-108100000D03*
%TO.N,unconnected-(J1-Pad3)*%
X140000000Y-102100000D03*
%TO.N,unconnected-(J1-Pad5)*%
X152600000Y-112000000D03*
X150900000Y-112000000D03*
%TO.N,unconnected-(J1-Pad4)*%
X146000000Y-106900000D03*
%TO.N,unconnected-(J1-Pad10)*%
X149000000Y-125500000D03*
%TO.N,unconnected-(J1-Pad8)*%
X149000000Y-113500000D03*
%TO.N,unconnected-(J1-Pad9)*%
X149000000Y-119500000D03*
%TO.N,unconnected-(J1-Pad6)*%
X149000000Y-101500000D03*
%TO.N,unconnected-(J1-Pad7)*%
X149000000Y-107500000D03*
%TO.N,unconnected-(J1-Pad5)*%
X150900000Y-115000000D03*
%TO.N,unconnected-(J1-Pad1)*%
X128500000Y-124500000D03*
X128500000Y-126500000D03*
%TO.N,unconnected-(J1-Pad5)*%
X151500000Y-126500000D03*
X151500000Y-124500000D03*
X151500000Y-102500000D03*
X151500000Y-100500000D03*
%TO.N,unconnected-(J1-Pad1)*%
X128500000Y-100500000D03*
X128500000Y-102500000D03*
%TO.N,unconnected-(J1-Pad4)*%
X146000000Y-118900000D03*
%TO.N,unconnected-(J1-Pad2)*%
X134000000Y-118900000D03*
%TO.N,unconnected-(J1-Pad3)*%
X140000000Y-118900000D03*
%TO.N,unconnected-(J1-Pad1)*%
X128000000Y-118900000D03*
%TO.N,unconnected-(J1-Pad3)*%
X140000000Y-100900000D03*
%TO.N,unconnected-(J1-Pad4)*%
X146000000Y-100900000D03*
%TO.N,unconnected-(J1-Pad3)*%
X140000000Y-106900000D03*
%TO.N,unconnected-(J1-Pad4)*%
X146000000Y-112900000D03*
%TO.N,unconnected-(J1-Pad5)*%
X152000000Y-106900000D03*
X152000000Y-118900000D03*
%TO.N,unconnected-(J1-Pad4)*%
X146000000Y-124900000D03*
%TO.N,unconnected-(J1-Pad3)*%
X140000000Y-124900000D03*
%TO.N,unconnected-(J1-Pad2)*%
X134000000Y-124900000D03*
%TO.N,unconnected-(J1-Pad1)*%
X128000000Y-112900000D03*
%TO.N,unconnected-(J1-Pad3)*%
X140000000Y-112900000D03*
%TO.N,unconnected-(J1-Pad2)*%
X134000000Y-112900000D03*
%TO.N,unconnected-(J1-Pad1)*%
X128000000Y-106900000D03*
%TO.N,unconnected-(J1-Pad2)*%
X134000000Y-106900000D03*
X134000000Y-100900000D03*
X134000000Y-102100000D03*
%TO.N,unconnected-(J1-Pad4)*%
X146000000Y-102100000D03*
%TD*%
D13*
%TO.N,unconnected-(J1-Pad2)*%
X135002000Y-99898000D02*
X134000000Y-100900000D01*
X149382143Y-99898000D02*
X135002000Y-99898000D01*
X150403000Y-100918857D02*
X149382143Y-99898000D01*
X150203000Y-102281143D02*
X150403000Y-102081143D01*
X150403000Y-102081143D02*
X150403000Y-100918857D01*
X150203000Y-106151757D02*
X150203000Y-102281143D01*
X150804000Y-106752757D02*
X150203000Y-106151757D01*
X150804000Y-108247243D02*
X150804000Y-106752757D01*
X150584047Y-109600000D02*
X150584047Y-108467196D01*
X153100000Y-109600000D02*
X150584047Y-109600000D01*
X150584047Y-108467196D02*
X150804000Y-108247243D01*
%TO.N,unconnected-(J1-Pad1)*%
X129600000Y-99400000D02*
X128500000Y-100500000D01*
X149451243Y-99400000D02*
X129600000Y-99400000D01*
X150804000Y-100752757D02*
X149451243Y-99400000D01*
X150604000Y-105985657D02*
X150604000Y-102447243D01*
X151205000Y-108405000D02*
X151205000Y-106586657D01*
X151205000Y-106586657D02*
X150604000Y-105985657D01*
X151600000Y-108800000D02*
X151205000Y-108405000D01*
X153100000Y-108800000D02*
X151600000Y-108800000D01*
X150604000Y-102447243D02*
X150804000Y-102247243D01*
X150804000Y-102247243D02*
X150804000Y-100752757D01*
%TO.N,unconnected-(J1-Pad3)*%
X140601000Y-100299000D02*
X140000000Y-100900000D01*
X149216043Y-100299000D02*
X140601000Y-100299000D01*
X150002000Y-101084957D02*
X149216043Y-100299000D01*
X150002000Y-101915043D02*
X150002000Y-101084957D01*
X150403000Y-108081143D02*
X150403000Y-106918857D01*
X150183047Y-108301096D02*
X150403000Y-108081143D01*
X150183047Y-110097000D02*
X150183047Y-108301096D01*
X151814100Y-110097000D02*
X150183047Y-110097000D01*
X152117100Y-110400000D02*
X151814100Y-110097000D01*
X153100000Y-110400000D02*
X152117100Y-110400000D01*
X150403000Y-106918857D02*
X149802000Y-106317857D01*
X149802000Y-106317857D02*
X149802000Y-102115043D01*
X149802000Y-102115043D02*
X150002000Y-101915043D01*
%TO.N,unconnected-(J1-Pad4)*%
X152350000Y-111200000D02*
X153100000Y-111200000D01*
X151648000Y-110498000D02*
X152350000Y-111200000D01*
X149782047Y-110498000D02*
X151648000Y-110498000D01*
X149782047Y-108134996D02*
X149782047Y-110498000D01*
X150002000Y-107915043D02*
X149782047Y-108134996D01*
X149415043Y-106498000D02*
X150002000Y-107084957D01*
X149401000Y-106498000D02*
X149415043Y-106498000D01*
X149401000Y-101948943D02*
X149401000Y-106498000D01*
X150002000Y-107084957D02*
X150002000Y-107915043D01*
X149601000Y-101748943D02*
X149401000Y-101948943D01*
X149249943Y-100900000D02*
X149601000Y-101251057D01*
X149601000Y-101251057D02*
X149601000Y-101748943D01*
X146000000Y-100900000D02*
X149249943Y-100900000D01*
%TO.N,unconnected-(J1-Pad5)*%
X151900000Y-124900000D02*
X151900000Y-126100000D01*
X151900000Y-126100000D02*
X151500000Y-126500000D01*
X151500000Y-124500000D02*
X151900000Y-124900000D01*
%TO.N,unconnected-(J1-Pad3)*%
X140000000Y-100900000D02*
X140100000Y-100900000D01*
%TO.N,unconnected-(J1-Pad2)*%
X134000000Y-100900000D02*
X134100000Y-100900000D01*
%TO.N,unconnected-(J1-Pad6)*%
X149381047Y-110899000D02*
X149381047Y-107968896D01*
X149381047Y-107968896D02*
X149601000Y-107748943D01*
X149601000Y-107748943D02*
X149601000Y-107251057D01*
X149601000Y-107251057D02*
X149248943Y-106899000D01*
X149248943Y-106899000D02*
X149000000Y-106899000D01*
X149000000Y-106899000D02*
X149000000Y-101500000D01*
%TO.N,unconnected-(J1-Pad4)*%
X146101000Y-100899000D02*
X146000000Y-101000000D01*
%TO.N,unconnected-(J1-Pad6)*%
X151266100Y-110899000D02*
X149381047Y-110899000D01*
X151902000Y-111534900D02*
X151266100Y-110899000D01*
X151902000Y-112799000D02*
X151902000Y-111534900D01*
X151901000Y-112800000D02*
X151902000Y-112799000D01*
X153100000Y-112800000D02*
X151901000Y-112800000D01*
%TO.N,unconnected-(J1-Pad8)*%
X151148943Y-115601000D02*
X150651057Y-115601000D01*
X149000000Y-113949943D02*
X149000000Y-113500000D01*
X152349943Y-114400000D02*
X151148943Y-115601000D01*
X153100000Y-114400000D02*
X152349943Y-114400000D01*
X150651057Y-115601000D02*
X149000000Y-113949943D01*
%TO.N,unconnected-(J1-Pad5)*%
X150900000Y-112000000D02*
X150900000Y-115000000D01*
%TO.N,unconnected-(J1-Pad1)*%
X128101000Y-100899000D02*
X128500000Y-100500000D01*
X128101000Y-102101000D02*
X128101000Y-100899000D01*
X128500000Y-102500000D02*
X128101000Y-102101000D01*
%TO.N,unconnected-(J1-Pad5)*%
X151899000Y-102101000D02*
X151899000Y-100899000D01*
X151500000Y-102500000D02*
X151899000Y-102101000D01*
X151899000Y-100899000D02*
X151500000Y-100500000D01*
%TO.N,unconnected-(J1-Pad1)*%
X128101000Y-126101000D02*
X128500000Y-126500000D01*
X128101000Y-124899000D02*
X128101000Y-126101000D01*
X128500000Y-124500000D02*
X128101000Y-124899000D01*
%TO.N,unconnected-(J1-Pad9)*%
X152498000Y-115200000D02*
X153100000Y-115200000D01*
X149000000Y-118698000D02*
X152498000Y-115200000D01*
X149000000Y-119500000D02*
X149000000Y-118698000D01*
%TO.N,unconnected-(J1-Pad10)*%
X150800000Y-117698000D02*
X152498000Y-116000000D01*
X149000000Y-124700000D02*
X150800000Y-122900000D01*
X150800000Y-122900000D02*
X150800000Y-117698000D01*
X152498000Y-116000000D02*
X153100000Y-116000000D01*
X149000000Y-125500000D02*
X149000000Y-124700000D01*
%TO.N,unconnected-(J1-Pad7)*%
X151501000Y-111701000D02*
X151501000Y-112967100D01*
X151501000Y-112967100D02*
X152133900Y-113600000D01*
X151100000Y-111300000D02*
X149100000Y-111300000D01*
X152133900Y-113600000D02*
X152900000Y-113600000D01*
X149100000Y-111300000D02*
X148980047Y-111180047D01*
X151501000Y-111701000D02*
X151100000Y-111300000D01*
X148980047Y-111180047D02*
X148980047Y-107519953D01*
X148980047Y-107519953D02*
X149000000Y-107500000D01*
%TO.N,unconnected-(J1-Pad3)*%
X140000000Y-100900000D02*
X140000000Y-102100000D01*
%TO.N,unconnected-(J1-Pad2)*%
X134000000Y-100900000D02*
X134000000Y-102100000D01*
X134000000Y-106900000D02*
X134000000Y-108100000D01*
X134000000Y-112900000D02*
X134000000Y-114100000D01*
X134000000Y-118900000D02*
X134000000Y-120100000D01*
X134000000Y-124900000D02*
X134000000Y-126100000D01*
%TO.N,unconnected-(J1-Pad3)*%
X140000000Y-118900000D02*
X140000000Y-120100000D01*
X140000000Y-124900000D02*
X140000000Y-126100000D01*
%TO.N,unconnected-(J1-Pad4)*%
X146000000Y-120100000D02*
X146000000Y-118900000D01*
X146000000Y-126100000D02*
X146000000Y-124900000D01*
X146000000Y-114100000D02*
X146000000Y-112900000D01*
%TO.N,unconnected-(J1-Pad3)*%
X140000000Y-114100000D02*
X140000000Y-112900000D01*
X140000000Y-108100000D02*
X140000000Y-106900000D01*
%TO.N,unconnected-(J1-Pad4)*%
X146000000Y-106900000D02*
X146000000Y-108100000D01*
%TO.N,unconnected-(J1-Pad1)*%
X128000000Y-108100000D02*
X128000000Y-106900000D01*
X128000000Y-112900000D02*
X128000000Y-114100000D01*
X128000000Y-118900000D02*
X128000000Y-120100000D01*
%TO.N,unconnected-(J1-Pad4)*%
X146000000Y-102100000D02*
X146000000Y-100900000D01*
%TO.N,unconnected-(J1-Pad5)*%
X152000000Y-120100000D02*
X152000000Y-118900000D01*
X152000000Y-108100000D02*
X152000000Y-106900000D01*
%TD*%
%TA.AperFunction,NonConductor*%
G36*
X128917941Y-99020185D02*
G01*
X128963696Y-99072989D01*
X128973640Y-99142147D01*
X128944615Y-99205703D01*
X128938583Y-99212181D01*
X128485339Y-99665425D01*
X128424016Y-99698910D01*
X128421850Y-99699361D01*
X128266508Y-99730261D01*
X128266507Y-99730261D01*
X128171952Y-99769427D01*
X128102482Y-99776895D01*
X128040003Y-99745619D01*
X128004351Y-99685530D01*
X128000500Y-99654865D01*
X128000500Y-99124500D01*
X128020185Y-99057461D01*
X128072989Y-99011706D01*
X128124500Y-99000500D01*
X128850902Y-99000500D01*
X128917941Y-99020185D01*
G37*
%TD.AperFunction*%
%TA.AperFunction,NonConductor*%
G36*
X151942539Y-99020185D02*
G01*
X151988294Y-99072989D01*
X151999500Y-99124500D01*
X151999500Y-99654865D01*
X151979815Y-99721904D01*
X151927011Y-99767659D01*
X151857853Y-99777603D01*
X151828048Y-99769427D01*
X151823780Y-99767659D01*
X151733497Y-99730263D01*
X151733494Y-99730262D01*
X151733491Y-99730261D01*
X151578845Y-99699500D01*
X151578842Y-99699500D01*
X151421158Y-99699500D01*
X151421155Y-99699500D01*
X151266510Y-99730261D01*
X151266498Y-99730264D01*
X151120827Y-99790602D01*
X151120814Y-99790609D01*
X150989711Y-99878210D01*
X150989706Y-99878214D01*
X150971878Y-99896042D01*
X150910554Y-99929526D01*
X150840863Y-99924540D01*
X150796518Y-99896040D01*
X150112659Y-99212181D01*
X150079174Y-99150858D01*
X150084158Y-99081166D01*
X150126030Y-99025233D01*
X150191494Y-99000816D01*
X150200340Y-99000500D01*
X151875500Y-99000500D01*
X151942539Y-99020185D01*
G37*
%TD.AperFunction*%
%TA.AperFunction,NonConductor*%
G36*
X151959996Y-103254379D02*
G01*
X151995648Y-103314468D01*
X151999500Y-103345134D01*
X151999500Y-103565891D01*
X152033608Y-103693187D01*
X152066554Y-103750250D01*
X152099500Y-103807314D01*
X152192686Y-103900500D01*
X152306814Y-103966392D01*
X152434108Y-104000500D01*
X155375500Y-104000500D01*
X155442539Y-104020185D01*
X155488294Y-104072989D01*
X155499500Y-104124500D01*
X155499500Y-106275500D01*
X155479815Y-106342539D01*
X155427011Y-106388294D01*
X155375500Y-106399500D01*
X153602129Y-106399500D01*
X153602123Y-106399501D01*
X153542516Y-106405908D01*
X153407671Y-106456202D01*
X153407664Y-106456206D01*
X153292455Y-106542452D01*
X153292452Y-106542455D01*
X153206206Y-106657664D01*
X153206202Y-106657671D01*
X153155908Y-106792517D01*
X153149501Y-106852116D01*
X153149500Y-106852135D01*
X153149500Y-107925500D01*
X153146949Y-107934185D01*
X153148238Y-107943147D01*
X153137259Y-107967187D01*
X153129815Y-107992539D01*
X153122974Y-107998466D01*
X153119213Y-108006703D01*
X153096978Y-108020992D01*
X153077011Y-108038294D01*
X153066496Y-108040581D01*
X153060435Y-108044477D01*
X153025500Y-108049500D01*
X152907902Y-108049500D01*
X152840863Y-108029815D01*
X152795108Y-107977011D01*
X152786285Y-107949692D01*
X152769738Y-107866508D01*
X152769737Y-107866507D01*
X152769737Y-107866503D01*
X152769735Y-107866498D01*
X152709397Y-107720827D01*
X152709390Y-107720814D01*
X152621398Y-107589125D01*
X152615747Y-107571078D01*
X152605523Y-107555169D01*
X152601071Y-107524207D01*
X152600520Y-107522447D01*
X152600500Y-107520234D01*
X152600500Y-107479765D01*
X152620185Y-107412726D01*
X152621398Y-107410874D01*
X152709390Y-107279185D01*
X152709390Y-107279184D01*
X152709394Y-107279179D01*
X152769737Y-107133497D01*
X152800500Y-106978842D01*
X152800500Y-106821158D01*
X152800500Y-106821155D01*
X152800499Y-106821153D01*
X152769738Y-106666510D01*
X152769737Y-106666503D01*
X152718354Y-106542452D01*
X152709397Y-106520827D01*
X152709390Y-106520814D01*
X152621789Y-106389711D01*
X152621786Y-106389707D01*
X152510292Y-106278213D01*
X152510288Y-106278210D01*
X152379185Y-106190609D01*
X152379172Y-106190602D01*
X152233501Y-106130264D01*
X152233489Y-106130261D01*
X152078845Y-106099500D01*
X152078842Y-106099500D01*
X151921158Y-106099500D01*
X151921155Y-106099500D01*
X151766511Y-106130260D01*
X151766502Y-106130263D01*
X151723786Y-106147956D01*
X151703915Y-106150091D01*
X151685188Y-106157078D01*
X151669884Y-106153749D01*
X151654317Y-106155423D01*
X151636445Y-106146476D01*
X151616915Y-106142229D01*
X151594618Y-106125538D01*
X151591838Y-106124147D01*
X151588659Y-106121080D01*
X151573716Y-106106137D01*
X151573713Y-106106135D01*
X151240819Y-105773241D01*
X151207334Y-105711918D01*
X151204500Y-105685560D01*
X151204500Y-103408498D01*
X151224185Y-103341459D01*
X151276989Y-103295704D01*
X151346147Y-103285760D01*
X151352685Y-103286879D01*
X151373512Y-103291022D01*
X151421156Y-103300500D01*
X151421158Y-103300500D01*
X151578844Y-103300500D01*
X151578845Y-103300499D01*
X151733497Y-103269737D01*
X151828048Y-103230572D01*
X151897517Y-103223104D01*
X151959996Y-103254379D01*
G37*
%TD.AperFunction*%
%TA.AperFunction,NonConductor*%
G36*
X155442539Y-108620184D02*
G01*
X155488294Y-108672988D01*
X155499500Y-108724499D01*
X155499500Y-117675500D01*
X155479815Y-117742539D01*
X155427011Y-117788294D01*
X155375500Y-117799500D01*
X154274499Y-117799500D01*
X154207460Y-117779815D01*
X154161705Y-117727011D01*
X154150499Y-117675500D01*
X154150499Y-117302129D01*
X154150498Y-117302123D01*
X154149970Y-117297206D01*
X154144091Y-117242517D01*
X154144090Y-117242515D01*
X154144090Y-117242512D01*
X154142308Y-117234969D01*
X154143773Y-117234622D01*
X154139409Y-117173651D01*
X154143819Y-117158633D01*
X154144089Y-117157488D01*
X154144088Y-117157488D01*
X154144091Y-117157483D01*
X154150500Y-117097873D01*
X154150499Y-116502128D01*
X154144091Y-116442517D01*
X154144090Y-116442515D01*
X154144090Y-116442512D01*
X154142308Y-116434969D01*
X154143773Y-116434622D01*
X154139409Y-116373651D01*
X154143819Y-116358633D01*
X154144089Y-116357488D01*
X154144088Y-116357488D01*
X154144091Y-116357483D01*
X154150500Y-116297873D01*
X154150499Y-115702128D01*
X154144091Y-115642517D01*
X154144090Y-115642515D01*
X154144090Y-115642512D01*
X154142308Y-115634969D01*
X154143773Y-115634622D01*
X154139409Y-115573651D01*
X154143819Y-115558633D01*
X154144089Y-115557488D01*
X154144088Y-115557488D01*
X154144091Y-115557483D01*
X154150500Y-115497873D01*
X154150499Y-114902128D01*
X154144091Y-114842517D01*
X154144090Y-114842515D01*
X154144090Y-114842512D01*
X154142308Y-114834969D01*
X154143773Y-114834622D01*
X154139409Y-114773651D01*
X154143819Y-114758633D01*
X154144089Y-114757488D01*
X154144088Y-114757488D01*
X154144091Y-114757483D01*
X154150500Y-114697873D01*
X154150499Y-114102128D01*
X154144091Y-114042517D01*
X154144090Y-114042515D01*
X154144090Y-114042512D01*
X154142308Y-114034969D01*
X154143773Y-114034622D01*
X154139409Y-113973651D01*
X154143819Y-113958633D01*
X154144089Y-113957488D01*
X154144088Y-113957488D01*
X154144091Y-113957483D01*
X154150500Y-113897873D01*
X154150499Y-113302128D01*
X154144091Y-113242517D01*
X154144090Y-113242515D01*
X154144090Y-113242512D01*
X154142308Y-113234969D01*
X154143773Y-113234622D01*
X154139409Y-113173651D01*
X154143819Y-113158633D01*
X154144089Y-113157488D01*
X154144088Y-113157488D01*
X154144091Y-113157483D01*
X154150500Y-113097873D01*
X154150499Y-112502128D01*
X154144091Y-112442517D01*
X154144090Y-112442515D01*
X154144090Y-112442512D01*
X154142308Y-112434969D01*
X154143773Y-112434622D01*
X154139409Y-112373651D01*
X154143819Y-112358633D01*
X154144089Y-112357488D01*
X154144088Y-112357488D01*
X154144091Y-112357483D01*
X154150500Y-112297873D01*
X154150499Y-111702128D01*
X154144091Y-111642517D01*
X154144090Y-111642515D01*
X154144090Y-111642512D01*
X154142308Y-111634969D01*
X154143773Y-111634622D01*
X154139409Y-111573651D01*
X154143819Y-111558633D01*
X154144089Y-111557488D01*
X154144088Y-111557488D01*
X154144091Y-111557483D01*
X154150500Y-111497873D01*
X154150499Y-110902128D01*
X154144091Y-110842517D01*
X154144090Y-110842515D01*
X154144090Y-110842512D01*
X154142308Y-110834969D01*
X154143773Y-110834622D01*
X154139409Y-110773651D01*
X154143819Y-110758633D01*
X154144089Y-110757488D01*
X154144088Y-110757488D01*
X154144091Y-110757483D01*
X154150500Y-110697873D01*
X154150499Y-110102128D01*
X154144091Y-110042517D01*
X154144090Y-110042515D01*
X154144090Y-110042512D01*
X154142308Y-110034969D01*
X154143773Y-110034622D01*
X154139409Y-109973651D01*
X154143819Y-109958633D01*
X154144089Y-109957488D01*
X154144088Y-109957488D01*
X154144091Y-109957483D01*
X154150500Y-109897873D01*
X154150499Y-109302128D01*
X154144091Y-109242517D01*
X154144090Y-109242515D01*
X154144090Y-109242512D01*
X154142308Y-109234969D01*
X154143773Y-109234622D01*
X154139409Y-109173651D01*
X154143819Y-109158633D01*
X154144089Y-109157488D01*
X154144088Y-109157488D01*
X154144091Y-109157483D01*
X154150500Y-109097873D01*
X154150499Y-108724498D01*
X154170183Y-108657460D01*
X154222987Y-108611705D01*
X154274499Y-108600499D01*
X155375500Y-108600499D01*
X155442539Y-108620184D01*
G37*
%TD.AperFunction*%
%TA.AperFunction,NonConductor*%
G36*
X151968833Y-117480914D02*
G01*
X152024767Y-117522785D01*
X152049184Y-117588250D01*
X152049500Y-117597096D01*
X152049500Y-117897869D01*
X152049501Y-117897876D01*
X152056421Y-117962247D01*
X152044014Y-118031006D01*
X151996403Y-118082143D01*
X151933131Y-118099500D01*
X151921155Y-118099500D01*
X151766510Y-118130261D01*
X151766498Y-118130264D01*
X151620827Y-118190602D01*
X151620816Y-118190608D01*
X151593390Y-118208934D01*
X151583690Y-118211971D01*
X151576011Y-118218625D01*
X151550912Y-118222233D01*
X151526712Y-118229811D01*
X151516912Y-118227122D01*
X151506853Y-118228569D01*
X151483786Y-118218034D01*
X151459332Y-118211326D01*
X151452541Y-118203765D01*
X151443297Y-118199544D01*
X151429585Y-118178208D01*
X151412643Y-118159346D01*
X151410012Y-118147751D01*
X151405523Y-118140766D01*
X151400500Y-118105831D01*
X151400500Y-117998097D01*
X151420185Y-117931058D01*
X151436819Y-117910416D01*
X151620224Y-117727011D01*
X151837821Y-117509413D01*
X151899142Y-117475930D01*
X151968833Y-117480914D01*
G37*
%TD.AperFunction*%
%TA.AperFunction,NonConductor*%
G36*
X153092539Y-118370184D02*
G01*
X153138294Y-118422988D01*
X153149500Y-118474499D01*
X153149500Y-119547870D01*
X153149501Y-119547876D01*
X153155908Y-119607483D01*
X153206202Y-119742328D01*
X153206206Y-119742335D01*
X153292452Y-119857544D01*
X153292455Y-119857547D01*
X153407664Y-119943793D01*
X153407671Y-119943797D01*
X153542517Y-119994091D01*
X153542516Y-119994091D01*
X153549444Y-119994835D01*
X153602127Y-120000500D01*
X155375500Y-120000499D01*
X155442539Y-120020184D01*
X155488294Y-120072987D01*
X155499500Y-120124499D01*
X155499500Y-122875500D01*
X155479815Y-122942539D01*
X155427011Y-122988294D01*
X155375500Y-122999500D01*
X152434108Y-122999500D01*
X152306812Y-123033608D01*
X152192686Y-123099500D01*
X152192683Y-123099502D01*
X152099502Y-123192683D01*
X152099500Y-123192686D01*
X152033608Y-123306812D01*
X151999500Y-123434108D01*
X151999500Y-123654865D01*
X151979815Y-123721904D01*
X151927011Y-123767659D01*
X151857853Y-123777603D01*
X151828048Y-123769427D01*
X151823780Y-123767659D01*
X151733497Y-123730263D01*
X151733494Y-123730262D01*
X151733491Y-123730261D01*
X151578845Y-123699500D01*
X151578842Y-123699500D01*
X151421158Y-123699500D01*
X151421155Y-123699500D01*
X151266510Y-123730261D01*
X151266498Y-123730264D01*
X151120827Y-123790602D01*
X151120811Y-123790611D01*
X151076104Y-123820483D01*
X151009427Y-123841360D01*
X150942047Y-123822875D01*
X150895357Y-123770895D01*
X150884182Y-123701925D01*
X150912069Y-123637862D01*
X150919521Y-123629712D01*
X151158506Y-123390727D01*
X151158511Y-123390724D01*
X151168714Y-123380520D01*
X151168716Y-123380520D01*
X151280520Y-123268716D01*
X151359577Y-123131784D01*
X151400500Y-122979057D01*
X151400500Y-120894168D01*
X151420185Y-120827129D01*
X151472989Y-120781374D01*
X151542147Y-120771430D01*
X151593392Y-120791067D01*
X151620812Y-120809389D01*
X151620827Y-120809397D01*
X151766498Y-120869735D01*
X151766503Y-120869737D01*
X151921153Y-120900499D01*
X151921156Y-120900500D01*
X151921158Y-120900500D01*
X152078844Y-120900500D01*
X152078845Y-120900499D01*
X152233497Y-120869737D01*
X152379179Y-120809394D01*
X152510289Y-120721789D01*
X152621789Y-120610289D01*
X152709394Y-120479179D01*
X152769737Y-120333497D01*
X152800500Y-120178842D01*
X152800500Y-120021158D01*
X152800500Y-120021155D01*
X152800499Y-120021153D01*
X152785112Y-119943797D01*
X152769737Y-119866503D01*
X152766026Y-119857544D01*
X152709397Y-119720827D01*
X152709390Y-119720814D01*
X152621398Y-119589125D01*
X152615747Y-119571078D01*
X152605523Y-119555169D01*
X152601071Y-119524207D01*
X152600520Y-119522447D01*
X152600500Y-119520234D01*
X152600500Y-119479765D01*
X152620185Y-119412726D01*
X152621398Y-119410874D01*
X152709390Y-119279185D01*
X152709390Y-119279184D01*
X152709394Y-119279179D01*
X152769737Y-119133497D01*
X152800500Y-118978842D01*
X152800500Y-118821158D01*
X152800500Y-118821155D01*
X152800499Y-118821153D01*
X152769738Y-118666510D01*
X152769737Y-118666503D01*
X152750038Y-118618945D01*
X152709863Y-118521951D01*
X152702394Y-118452482D01*
X152733670Y-118390003D01*
X152793759Y-118354351D01*
X152824424Y-118350499D01*
X153025500Y-118350499D01*
X153092539Y-118370184D01*
G37*
%TD.AperFunction*%
%TA.AperFunction,NonConductor*%
G36*
X133563600Y-100020185D02*
G01*
X133609355Y-100072989D01*
X133619299Y-100142147D01*
X133590274Y-100205703D01*
X133565452Y-100227602D01*
X133489711Y-100278210D01*
X133489707Y-100278213D01*
X133378213Y-100389707D01*
X133378210Y-100389711D01*
X133290609Y-100520814D01*
X133290602Y-100520827D01*
X133230264Y-100666498D01*
X133230261Y-100666510D01*
X133199500Y-100821153D01*
X133199500Y-100978846D01*
X133230261Y-101133489D01*
X133230264Y-101133501D01*
X133290602Y-101279172D01*
X133290609Y-101279185D01*
X133378602Y-101410874D01*
X133384252Y-101428920D01*
X133394477Y-101444830D01*
X133398928Y-101475789D01*
X133399480Y-101477551D01*
X133399500Y-101479765D01*
X133399500Y-101520234D01*
X133379815Y-101587273D01*
X133378602Y-101589125D01*
X133290609Y-101720814D01*
X133290602Y-101720827D01*
X133230264Y-101866498D01*
X133230261Y-101866510D01*
X133199500Y-102021153D01*
X133199500Y-102178846D01*
X133230261Y-102333489D01*
X133230264Y-102333501D01*
X133290602Y-102479172D01*
X133290609Y-102479185D01*
X133378210Y-102610288D01*
X133378213Y-102610292D01*
X133489707Y-102721786D01*
X133489711Y-102721789D01*
X133620814Y-102809390D01*
X133620827Y-102809397D01*
X133766498Y-102869735D01*
X133766503Y-102869737D01*
X133921153Y-102900499D01*
X133921156Y-102900500D01*
X133921158Y-102900500D01*
X134078844Y-102900500D01*
X134078845Y-102900499D01*
X134233497Y-102869737D01*
X134379179Y-102809394D01*
X134510289Y-102721789D01*
X134621789Y-102610289D01*
X134709394Y-102479179D01*
X134769737Y-102333497D01*
X134800500Y-102178842D01*
X134800500Y-102021158D01*
X134800500Y-102021155D01*
X134800499Y-102021153D01*
X134794244Y-101989707D01*
X134769737Y-101866503D01*
X134738298Y-101790602D01*
X134709397Y-101720827D01*
X134709390Y-101720814D01*
X134621398Y-101589125D01*
X134615747Y-101571078D01*
X134605523Y-101555169D01*
X134601071Y-101524207D01*
X134600520Y-101522447D01*
X134600500Y-101520234D01*
X134600500Y-101479765D01*
X134620185Y-101412726D01*
X134621398Y-101410874D01*
X134651486Y-101365845D01*
X134709394Y-101279179D01*
X134720217Y-101253051D01*
X134769735Y-101133501D01*
X134769737Y-101133497D01*
X134796429Y-100999309D01*
X134800638Y-100978150D01*
X134833023Y-100916239D01*
X134834518Y-100914716D01*
X135214416Y-100534819D01*
X135275739Y-100501334D01*
X135302097Y-100498500D01*
X139114273Y-100498500D01*
X139181312Y-100518185D01*
X139227067Y-100570989D01*
X139237011Y-100640147D01*
X139231429Y-100660493D01*
X139232031Y-100660676D01*
X139230261Y-100666510D01*
X139199500Y-100821153D01*
X139199500Y-100978846D01*
X139230261Y-101133489D01*
X139230264Y-101133501D01*
X139290602Y-101279172D01*
X139290609Y-101279185D01*
X139378602Y-101410874D01*
X139384252Y-101428920D01*
X139394477Y-101444830D01*
X139398928Y-101475789D01*
X139399480Y-101477551D01*
X139399500Y-101479765D01*
X139399500Y-101520234D01*
X139379815Y-101587273D01*
X139378602Y-101589125D01*
X139290609Y-101720814D01*
X139290602Y-101720827D01*
X139230264Y-101866498D01*
X139230261Y-101866510D01*
X139199500Y-102021153D01*
X139199500Y-102178846D01*
X139230261Y-102333489D01*
X139230264Y-102333501D01*
X139290602Y-102479172D01*
X139290609Y-102479185D01*
X139378210Y-102610288D01*
X139378213Y-102610292D01*
X139489707Y-102721786D01*
X139489711Y-102721789D01*
X139620814Y-102809390D01*
X139620827Y-102809397D01*
X139766498Y-102869735D01*
X139766503Y-102869737D01*
X139921153Y-102900499D01*
X139921156Y-102900500D01*
X139921158Y-102900500D01*
X140078844Y-102900500D01*
X140078845Y-102900499D01*
X140233497Y-102869737D01*
X140379179Y-102809394D01*
X140510289Y-102721789D01*
X140621789Y-102610289D01*
X140709394Y-102479179D01*
X140769737Y-102333497D01*
X140800500Y-102178842D01*
X140800500Y-102021158D01*
X140800500Y-102021155D01*
X140800499Y-102021153D01*
X140794244Y-101989707D01*
X140769737Y-101866503D01*
X140738298Y-101790602D01*
X140709397Y-101720827D01*
X140709390Y-101720814D01*
X140621398Y-101589125D01*
X140615747Y-101571078D01*
X140605523Y-101555169D01*
X140601071Y-101524207D01*
X140600520Y-101522447D01*
X140600500Y-101520234D01*
X140600500Y-101479765D01*
X140620185Y-101412726D01*
X140621398Y-101410874D01*
X140651486Y-101365845D01*
X140709394Y-101279179D01*
X140720217Y-101253051D01*
X140769735Y-101133501D01*
X140769737Y-101133497D01*
X140796429Y-100999309D01*
X140828814Y-100937398D01*
X140889529Y-100902824D01*
X140918046Y-100899500D01*
X145081954Y-100899500D01*
X145148993Y-100919185D01*
X145194748Y-100971989D01*
X145203571Y-100999309D01*
X145230261Y-101133489D01*
X145230264Y-101133501D01*
X145290602Y-101279172D01*
X145290609Y-101279185D01*
X145378602Y-101410874D01*
X145384252Y-101428920D01*
X145394477Y-101444830D01*
X145398928Y-101475789D01*
X145399480Y-101477551D01*
X145399500Y-101479765D01*
X145399500Y-101520234D01*
X145379815Y-101587273D01*
X145378602Y-101589125D01*
X145290609Y-101720814D01*
X145290602Y-101720827D01*
X145230264Y-101866498D01*
X145230261Y-101866510D01*
X145199500Y-102021153D01*
X145199500Y-102178846D01*
X145230261Y-102333489D01*
X145230264Y-102333501D01*
X145290602Y-102479172D01*
X145290609Y-102479185D01*
X145378210Y-102610288D01*
X145378213Y-102610292D01*
X145489707Y-102721786D01*
X145489711Y-102721789D01*
X145620814Y-102809390D01*
X145620827Y-102809397D01*
X145766498Y-102869735D01*
X145766503Y-102869737D01*
X145921153Y-102900499D01*
X145921156Y-102900500D01*
X145921158Y-102900500D01*
X146078844Y-102900500D01*
X146078845Y-102900499D01*
X146233497Y-102869737D01*
X146379179Y-102809394D01*
X146510289Y-102721789D01*
X146621789Y-102610289D01*
X146709394Y-102479179D01*
X146769737Y-102333497D01*
X146800500Y-102178842D01*
X146800500Y-102021158D01*
X146800500Y-102021155D01*
X146800499Y-102021153D01*
X146794244Y-101989707D01*
X146769737Y-101866503D01*
X146738298Y-101790602D01*
X146709397Y-101720827D01*
X146709389Y-101720812D01*
X146691067Y-101693392D01*
X146670188Y-101626715D01*
X146688672Y-101559334D01*
X146740650Y-101512644D01*
X146794168Y-101500500D01*
X148082152Y-101500500D01*
X148149191Y-101520185D01*
X148194946Y-101572989D01*
X148203769Y-101600308D01*
X148230261Y-101733491D01*
X148230264Y-101733501D01*
X148290602Y-101879172D01*
X148290609Y-101879185D01*
X148378602Y-102010874D01*
X148399480Y-102077551D01*
X148399500Y-102079765D01*
X148399500Y-106920234D01*
X148379815Y-106987273D01*
X148378602Y-106989125D01*
X148290609Y-107120814D01*
X148290602Y-107120827D01*
X148230264Y-107266498D01*
X148230261Y-107266510D01*
X148199500Y-107421153D01*
X148199500Y-107578846D01*
X148230261Y-107733489D01*
X148230264Y-107733501D01*
X148290602Y-107879172D01*
X148290609Y-107879185D01*
X148358649Y-107981013D01*
X148379527Y-108047690D01*
X148379547Y-108049904D01*
X148379547Y-111093377D01*
X148379546Y-111093395D01*
X148379546Y-111259101D01*
X148379545Y-111259101D01*
X148420471Y-111411836D01*
X148420472Y-111411837D01*
X148445879Y-111455842D01*
X148445881Y-111455844D01*
X148499526Y-111548761D01*
X148499528Y-111548764D01*
X148615149Y-111664385D01*
X148619479Y-111668715D01*
X148619480Y-111668716D01*
X148731284Y-111780520D01*
X148731286Y-111780521D01*
X148731290Y-111780524D01*
X148782786Y-111810255D01*
X148782791Y-111810257D01*
X148868209Y-111859574D01*
X148868210Y-111859574D01*
X148868215Y-111859577D01*
X149020943Y-111900500D01*
X149179057Y-111900500D01*
X149975500Y-111900500D01*
X150042539Y-111920185D01*
X150088294Y-111972989D01*
X150099500Y-112024500D01*
X150099500Y-112078846D01*
X150130261Y-112233489D01*
X150130264Y-112233501D01*
X150190602Y-112379172D01*
X150190609Y-112379185D01*
X150278602Y-112510874D01*
X150299480Y-112577551D01*
X150299500Y-112579765D01*
X150299500Y-114100846D01*
X150279815Y-114167885D01*
X150227011Y-114213640D01*
X150157853Y-114223584D01*
X150094297Y-114194559D01*
X150087819Y-114188527D01*
X149788212Y-113888920D01*
X149754727Y-113827597D01*
X149759711Y-113757905D01*
X149761308Y-113753846D01*
X149769737Y-113733497D01*
X149800500Y-113578842D01*
X149800500Y-113421158D01*
X149800500Y-113421155D01*
X149800499Y-113421153D01*
X149776822Y-113302123D01*
X149769737Y-113266503D01*
X149731277Y-113173651D01*
X149709397Y-113120827D01*
X149709390Y-113120814D01*
X149621789Y-112989711D01*
X149621786Y-112989707D01*
X149510292Y-112878213D01*
X149510288Y-112878210D01*
X149379185Y-112790609D01*
X149379172Y-112790602D01*
X149233501Y-112730264D01*
X149233489Y-112730261D01*
X149078845Y-112699500D01*
X149078842Y-112699500D01*
X148921158Y-112699500D01*
X148921155Y-112699500D01*
X148766510Y-112730261D01*
X148766498Y-112730264D01*
X148620827Y-112790602D01*
X148620814Y-112790609D01*
X148489711Y-112878210D01*
X148489707Y-112878213D01*
X148378213Y-112989707D01*
X148378210Y-112989711D01*
X148290609Y-113120814D01*
X148290602Y-113120827D01*
X148230264Y-113266498D01*
X148230261Y-113266510D01*
X148199500Y-113421153D01*
X148199500Y-113578846D01*
X148230261Y-113733489D01*
X148230264Y-113733501D01*
X148290602Y-113879172D01*
X148290609Y-113879185D01*
X148378210Y-114010288D01*
X148382076Y-114014999D01*
X148381107Y-114015794D01*
X148383869Y-114020288D01*
X148391437Y-114026443D01*
X148402811Y-114051106D01*
X148407094Y-114058074D01*
X148408162Y-114061333D01*
X148440423Y-114181728D01*
X148450684Y-114199500D01*
X148457116Y-114210641D01*
X148457117Y-114210643D01*
X148519477Y-114318655D01*
X148519481Y-114318660D01*
X148638349Y-114437528D01*
X148638355Y-114437533D01*
X150166196Y-115965374D01*
X150166206Y-115965385D01*
X150170536Y-115969715D01*
X150170537Y-115969716D01*
X150282341Y-116081520D01*
X150369152Y-116131639D01*
X150419272Y-116160577D01*
X150436172Y-116165105D01*
X150447512Y-116170807D01*
X150464134Y-116186338D01*
X150483559Y-116198177D01*
X150489174Y-116209736D01*
X150498564Y-116218509D01*
X150504150Y-116240559D01*
X150514092Y-116261022D01*
X150512567Y-116273781D01*
X150515723Y-116286239D01*
X150508500Y-116307810D01*
X150505801Y-116330398D01*
X150496176Y-116344619D01*
X150493540Y-116352493D01*
X150487642Y-116357227D01*
X150479491Y-116369273D01*
X148519481Y-118329282D01*
X148519479Y-118329284D01*
X148497461Y-118367422D01*
X148484593Y-118389711D01*
X148440423Y-118466215D01*
X148399499Y-118618943D01*
X148399499Y-118618945D01*
X148399499Y-118787046D01*
X148399500Y-118787059D01*
X148399500Y-118920234D01*
X148379815Y-118987273D01*
X148378602Y-118989125D01*
X148290609Y-119120814D01*
X148290602Y-119120827D01*
X148230264Y-119266498D01*
X148230261Y-119266510D01*
X148199500Y-119421153D01*
X148199500Y-119578846D01*
X148230261Y-119733489D01*
X148230264Y-119733501D01*
X148290602Y-119879172D01*
X148290609Y-119879185D01*
X148378210Y-120010288D01*
X148378213Y-120010292D01*
X148489707Y-120121786D01*
X148489711Y-120121789D01*
X148620814Y-120209390D01*
X148620827Y-120209397D01*
X148766498Y-120269735D01*
X148766503Y-120269737D01*
X148921153Y-120300499D01*
X148921156Y-120300500D01*
X148921158Y-120300500D01*
X149078844Y-120300500D01*
X149078845Y-120300499D01*
X149233497Y-120269737D01*
X149379179Y-120209394D01*
X149510289Y-120121789D01*
X149621789Y-120010289D01*
X149709394Y-119879179D01*
X149769737Y-119733497D01*
X149800500Y-119578842D01*
X149800500Y-119421158D01*
X149800500Y-119421155D01*
X149800499Y-119421153D01*
X149798338Y-119410289D01*
X149769737Y-119266503D01*
X149769735Y-119266498D01*
X149709397Y-119120827D01*
X149709390Y-119120814D01*
X149652585Y-119035800D01*
X149631707Y-118969123D01*
X149650191Y-118901743D01*
X149668002Y-118879232D01*
X149987819Y-118559416D01*
X150049142Y-118525931D01*
X150118834Y-118530915D01*
X150174767Y-118572787D01*
X150199184Y-118638251D01*
X150199500Y-118647097D01*
X150199500Y-122599902D01*
X150179815Y-122666941D01*
X150163181Y-122687583D01*
X148519481Y-124331282D01*
X148519480Y-124331284D01*
X148485748Y-124389711D01*
X148469361Y-124418094D01*
X148469359Y-124418096D01*
X148440425Y-124468209D01*
X148440424Y-124468210D01*
X148440423Y-124468215D01*
X148399499Y-124620943D01*
X148399499Y-124620945D01*
X148399499Y-124789046D01*
X148399500Y-124789059D01*
X148399500Y-124920234D01*
X148379815Y-124987273D01*
X148378602Y-124989125D01*
X148290609Y-125120814D01*
X148290602Y-125120827D01*
X148230264Y-125266498D01*
X148230261Y-125266510D01*
X148199500Y-125421153D01*
X148199500Y-125578846D01*
X148230261Y-125733489D01*
X148230264Y-125733501D01*
X148290602Y-125879172D01*
X148290609Y-125879185D01*
X148378210Y-126010288D01*
X148378213Y-126010292D01*
X148489707Y-126121786D01*
X148489711Y-126121789D01*
X148620814Y-126209390D01*
X148620827Y-126209397D01*
X148758683Y-126266498D01*
X148766503Y-126269737D01*
X148921153Y-126300499D01*
X148921156Y-126300500D01*
X148921158Y-126300500D01*
X149078844Y-126300500D01*
X149078845Y-126300499D01*
X149233497Y-126269737D01*
X149379179Y-126209394D01*
X149510289Y-126121789D01*
X149621789Y-126010289D01*
X149709394Y-125879179D01*
X149769737Y-125733497D01*
X149800500Y-125578842D01*
X149800500Y-125421158D01*
X149800500Y-125421155D01*
X149800499Y-125421153D01*
X149788699Y-125361833D01*
X149769737Y-125266503D01*
X149746080Y-125209390D01*
X149709397Y-125120827D01*
X149709390Y-125120814D01*
X149653386Y-125036999D01*
X149632508Y-124970322D01*
X149650992Y-124902942D01*
X149668803Y-124880431D01*
X150629701Y-123919532D01*
X150691022Y-123886049D01*
X150760713Y-123891033D01*
X150816647Y-123932905D01*
X150841064Y-123998369D01*
X150826212Y-124066642D01*
X150820483Y-124076104D01*
X150790611Y-124120811D01*
X150790602Y-124120827D01*
X150730264Y-124266498D01*
X150730261Y-124266510D01*
X150699500Y-124421153D01*
X150699500Y-124578846D01*
X150730261Y-124733489D01*
X150730264Y-124733501D01*
X150790602Y-124879172D01*
X150790609Y-124879185D01*
X150878210Y-125010288D01*
X150878213Y-125010292D01*
X150989707Y-125121786D01*
X150989711Y-125121789D01*
X151120814Y-125209390D01*
X151120827Y-125209397D01*
X151222952Y-125251698D01*
X151277356Y-125295538D01*
X151299421Y-125361833D01*
X151299500Y-125366259D01*
X151299500Y-125633740D01*
X151279815Y-125700779D01*
X151227011Y-125746534D01*
X151222953Y-125748301D01*
X151120824Y-125790604D01*
X151120814Y-125790609D01*
X150989711Y-125878210D01*
X150989707Y-125878213D01*
X150878213Y-125989707D01*
X150878210Y-125989711D01*
X150790609Y-126120814D01*
X150790602Y-126120827D01*
X150730264Y-126266498D01*
X150730261Y-126266510D01*
X150699500Y-126421153D01*
X150699500Y-126578846D01*
X150730261Y-126733489D01*
X150730264Y-126733501D01*
X150790602Y-126879172D01*
X150790609Y-126879185D01*
X150878210Y-127010288D01*
X150878213Y-127010292D01*
X150989707Y-127121786D01*
X150989711Y-127121789D01*
X151120814Y-127209390D01*
X151120827Y-127209397D01*
X151229425Y-127254379D01*
X151266503Y-127269737D01*
X151421153Y-127300499D01*
X151421156Y-127300500D01*
X151421158Y-127300500D01*
X151578844Y-127300500D01*
X151578845Y-127300499D01*
X151733497Y-127269737D01*
X151828048Y-127230572D01*
X151897517Y-127223104D01*
X151959996Y-127254379D01*
X151995648Y-127314468D01*
X151999500Y-127345134D01*
X151999500Y-127875500D01*
X151979815Y-127942539D01*
X151927011Y-127988294D01*
X151875500Y-127999500D01*
X128124500Y-127999500D01*
X128057461Y-127979815D01*
X128011706Y-127927011D01*
X128000500Y-127875500D01*
X128000500Y-127345134D01*
X128020185Y-127278095D01*
X128072989Y-127232340D01*
X128142147Y-127222396D01*
X128171950Y-127230572D01*
X128266503Y-127269737D01*
X128421153Y-127300499D01*
X128421156Y-127300500D01*
X128421158Y-127300500D01*
X128578844Y-127300500D01*
X128578845Y-127300499D01*
X128733497Y-127269737D01*
X128879179Y-127209394D01*
X129010289Y-127121789D01*
X129121789Y-127010289D01*
X129209394Y-126879179D01*
X129269737Y-126733497D01*
X129300500Y-126578842D01*
X129300500Y-126421158D01*
X129300500Y-126421155D01*
X129300499Y-126421153D01*
X129269738Y-126266510D01*
X129269737Y-126266503D01*
X129209794Y-126121786D01*
X129209397Y-126120827D01*
X129209390Y-126120814D01*
X129121789Y-125989711D01*
X129121786Y-125989707D01*
X129010292Y-125878213D01*
X129010288Y-125878210D01*
X128879185Y-125790609D01*
X128879172Y-125790602D01*
X128778048Y-125748716D01*
X128723644Y-125704875D01*
X128701579Y-125638581D01*
X128701500Y-125634155D01*
X128701500Y-125365845D01*
X128721185Y-125298806D01*
X128773989Y-125253051D01*
X128778048Y-125251284D01*
X128879172Y-125209397D01*
X128879172Y-125209396D01*
X128879179Y-125209394D01*
X129010289Y-125121789D01*
X129121789Y-125010289D01*
X129209394Y-124879179D01*
X129233429Y-124821153D01*
X133199500Y-124821153D01*
X133199500Y-124978846D01*
X133230261Y-125133489D01*
X133230264Y-125133501D01*
X133290602Y-125279172D01*
X133290609Y-125279185D01*
X133378602Y-125410874D01*
X133384252Y-125428920D01*
X133394477Y-125444830D01*
X133398928Y-125475789D01*
X133399480Y-125477551D01*
X133399500Y-125479765D01*
X133399500Y-125520234D01*
X133379815Y-125587273D01*
X133378602Y-125589125D01*
X133290609Y-125720814D01*
X133290602Y-125720827D01*
X133230264Y-125866498D01*
X133230261Y-125866510D01*
X133199500Y-126021153D01*
X133199500Y-126178846D01*
X133230261Y-126333489D01*
X133230264Y-126333501D01*
X133290602Y-126479172D01*
X133290609Y-126479185D01*
X133378210Y-126610288D01*
X133378213Y-126610292D01*
X133489707Y-126721786D01*
X133489711Y-126721789D01*
X133620814Y-126809390D01*
X133620827Y-126809397D01*
X133766498Y-126869735D01*
X133766503Y-126869737D01*
X133921153Y-126900499D01*
X133921156Y-126900500D01*
X133921158Y-126900500D01*
X134078844Y-126900500D01*
X134078845Y-126900499D01*
X134233497Y-126869737D01*
X134379179Y-126809394D01*
X134510289Y-126721789D01*
X134621789Y-126610289D01*
X134709394Y-126479179D01*
X134769737Y-126333497D01*
X134800500Y-126178842D01*
X134800500Y-126021158D01*
X134800500Y-126021155D01*
X134800499Y-126021153D01*
X134794244Y-125989707D01*
X134769737Y-125866503D01*
X134738298Y-125790602D01*
X134709397Y-125720827D01*
X134709390Y-125720814D01*
X134621398Y-125589125D01*
X134615747Y-125571078D01*
X134605523Y-125555169D01*
X134601071Y-125524207D01*
X134600520Y-125522447D01*
X134600500Y-125520234D01*
X134600500Y-125479765D01*
X134620185Y-125412726D01*
X134621398Y-125410874D01*
X134651486Y-125365845D01*
X134709394Y-125279179D01*
X134720217Y-125253051D01*
X134769735Y-125133501D01*
X134769737Y-125133497D01*
X134800500Y-124978842D01*
X134800500Y-124821158D01*
X134800500Y-124821155D01*
X134800499Y-124821153D01*
X139199500Y-124821153D01*
X139199500Y-124978846D01*
X139230261Y-125133489D01*
X139230264Y-125133501D01*
X139290602Y-125279172D01*
X139290609Y-125279185D01*
X139378602Y-125410874D01*
X139384252Y-125428920D01*
X139394477Y-125444830D01*
X139398928Y-125475789D01*
X139399480Y-125477551D01*
X139399500Y-125479765D01*
X139399500Y-125520234D01*
X139379815Y-125587273D01*
X139378602Y-125589125D01*
X139290609Y-125720814D01*
X139290602Y-125720827D01*
X139230264Y-125866498D01*
X139230261Y-125866510D01*
X139199500Y-126021153D01*
X139199500Y-126178846D01*
X139230261Y-126333489D01*
X139230264Y-126333501D01*
X139290602Y-126479172D01*
X139290609Y-126479185D01*
X139378210Y-126610288D01*
X139378213Y-126610292D01*
X139489707Y-126721786D01*
X139489711Y-126721789D01*
X139620814Y-126809390D01*
X139620827Y-126809397D01*
X139766498Y-126869735D01*
X139766503Y-126869737D01*
X139921153Y-126900499D01*
X139921156Y-126900500D01*
X139921158Y-126900500D01*
X140078844Y-126900500D01*
X140078845Y-126900499D01*
X140233497Y-126869737D01*
X140379179Y-126809394D01*
X140510289Y-126721789D01*
X140621789Y-126610289D01*
X140709394Y-126479179D01*
X140769737Y-126333497D01*
X140800500Y-126178842D01*
X140800500Y-126021158D01*
X140800500Y-126021155D01*
X140800499Y-126021153D01*
X140794244Y-125989707D01*
X140769737Y-125866503D01*
X140738298Y-125790602D01*
X140709397Y-125720827D01*
X140709390Y-125720814D01*
X140621398Y-125589125D01*
X140615747Y-125571078D01*
X140605523Y-125555169D01*
X140601071Y-125524207D01*
X140600520Y-125522447D01*
X140600500Y-125520234D01*
X140600500Y-125479765D01*
X140620185Y-125412726D01*
X140621398Y-125410874D01*
X140651486Y-125365845D01*
X140709394Y-125279179D01*
X140720217Y-125253051D01*
X140769735Y-125133501D01*
X140769737Y-125133497D01*
X140800500Y-124978842D01*
X140800500Y-124821158D01*
X140800500Y-124821155D01*
X140800499Y-124821153D01*
X145199500Y-124821153D01*
X145199500Y-124978846D01*
X145230261Y-125133489D01*
X145230264Y-125133501D01*
X145290602Y-125279172D01*
X145290609Y-125279185D01*
X145378602Y-125410874D01*
X145384252Y-125428920D01*
X145394477Y-125444830D01*
X145398928Y-125475789D01*
X145399480Y-125477551D01*
X145399500Y-125479765D01*
X145399500Y-125520234D01*
X145379815Y-125587273D01*
X145378602Y-125589125D01*
X145290609Y-125720814D01*
X145290602Y-125720827D01*
X145230264Y-125866498D01*
X145230261Y-125866510D01*
X145199500Y-126021153D01*
X145199500Y-126178846D01*
X145230261Y-126333489D01*
X145230264Y-126333501D01*
X145290602Y-126479172D01*
X145290609Y-126479185D01*
X145378210Y-126610288D01*
X145378213Y-126610292D01*
X145489707Y-126721786D01*
X145489711Y-126721789D01*
X145620814Y-126809390D01*
X145620827Y-126809397D01*
X145766498Y-126869735D01*
X145766503Y-126869737D01*
X145921153Y-126900499D01*
X145921156Y-126900500D01*
X145921158Y-126900500D01*
X146078844Y-126900500D01*
X146078845Y-126900499D01*
X146233497Y-126869737D01*
X146379179Y-126809394D01*
X146510289Y-126721789D01*
X146621789Y-126610289D01*
X146709394Y-126479179D01*
X146769737Y-126333497D01*
X146800500Y-126178842D01*
X146800500Y-126021158D01*
X146800500Y-126021155D01*
X146800499Y-126021153D01*
X146794244Y-125989707D01*
X146769737Y-125866503D01*
X146738298Y-125790602D01*
X146709397Y-125720827D01*
X146709390Y-125720814D01*
X146621398Y-125589125D01*
X146615747Y-125571078D01*
X146605523Y-125555169D01*
X146601071Y-125524207D01*
X146600520Y-125522447D01*
X146600500Y-125520234D01*
X146600500Y-125479765D01*
X146620185Y-125412726D01*
X146621398Y-125410874D01*
X146651486Y-125365845D01*
X146709394Y-125279179D01*
X146720217Y-125253051D01*
X146769735Y-125133501D01*
X146769737Y-125133497D01*
X146800500Y-124978842D01*
X146800500Y-124821158D01*
X146800500Y-124821155D01*
X146800499Y-124821153D01*
X146792126Y-124779060D01*
X146769737Y-124666503D01*
X146769735Y-124666498D01*
X146709397Y-124520827D01*
X146709390Y-124520814D01*
X146621789Y-124389711D01*
X146621786Y-124389707D01*
X146510292Y-124278213D01*
X146510288Y-124278210D01*
X146379185Y-124190609D01*
X146379172Y-124190602D01*
X146233501Y-124130264D01*
X146233489Y-124130261D01*
X146078845Y-124099500D01*
X146078842Y-124099500D01*
X145921158Y-124099500D01*
X145921155Y-124099500D01*
X145766510Y-124130261D01*
X145766498Y-124130264D01*
X145620827Y-124190602D01*
X145620814Y-124190609D01*
X145489711Y-124278210D01*
X145489707Y-124278213D01*
X145378213Y-124389707D01*
X145378210Y-124389711D01*
X145290609Y-124520814D01*
X145290602Y-124520827D01*
X145230264Y-124666498D01*
X145230261Y-124666510D01*
X145199500Y-124821153D01*
X140800499Y-124821153D01*
X140792126Y-124779060D01*
X140769737Y-124666503D01*
X140769735Y-124666498D01*
X140709397Y-124520827D01*
X140709390Y-124520814D01*
X140621789Y-124389711D01*
X140621786Y-124389707D01*
X140510292Y-124278213D01*
X140510288Y-124278210D01*
X140379185Y-124190609D01*
X140379172Y-124190602D01*
X140233501Y-124130264D01*
X140233489Y-124130261D01*
X140078845Y-124099500D01*
X140078842Y-124099500D01*
X139921158Y-124099500D01*
X139921155Y-124099500D01*
X139766510Y-124130261D01*
X139766498Y-124130264D01*
X139620827Y-124190602D01*
X139620814Y-124190609D01*
X139489711Y-124278210D01*
X139489707Y-124278213D01*
X139378213Y-124389707D01*
X139378210Y-124389711D01*
X139290609Y-124520814D01*
X139290602Y-124520827D01*
X139230264Y-124666498D01*
X139230261Y-124666510D01*
X139199500Y-124821153D01*
X134800499Y-124821153D01*
X134792126Y-124779060D01*
X134769737Y-124666503D01*
X134769735Y-124666498D01*
X134709397Y-124520827D01*
X134709390Y-124520814D01*
X134621789Y-124389711D01*
X134621786Y-124389707D01*
X134510292Y-124278213D01*
X134510288Y-124278210D01*
X134379185Y-124190609D01*
X134379172Y-124190602D01*
X134233501Y-124130264D01*
X134233489Y-124130261D01*
X134078845Y-124099500D01*
X134078842Y-124099500D01*
X133921158Y-124099500D01*
X133921155Y-124099500D01*
X133766510Y-124130261D01*
X133766498Y-124130264D01*
X133620827Y-124190602D01*
X133620814Y-124190609D01*
X133489711Y-124278210D01*
X133489707Y-124278213D01*
X133378213Y-124389707D01*
X133378210Y-124389711D01*
X133290609Y-124520814D01*
X133290602Y-124520827D01*
X133230264Y-124666498D01*
X133230261Y-124666510D01*
X133199500Y-124821153D01*
X129233429Y-124821153D01*
X129246728Y-124789046D01*
X129255603Y-124767621D01*
X129255605Y-124767614D01*
X129269737Y-124733497D01*
X129300500Y-124578842D01*
X129300500Y-124421158D01*
X129300500Y-124421155D01*
X129300499Y-124421153D01*
X129272066Y-124278211D01*
X129269737Y-124266503D01*
X129238298Y-124190602D01*
X129209397Y-124120827D01*
X129209390Y-124120814D01*
X129121789Y-123989711D01*
X129121786Y-123989707D01*
X129010292Y-123878213D01*
X129010288Y-123878210D01*
X128879185Y-123790609D01*
X128879172Y-123790602D01*
X128733501Y-123730264D01*
X128733489Y-123730261D01*
X128578845Y-123699500D01*
X128578842Y-123699500D01*
X128421158Y-123699500D01*
X128421155Y-123699500D01*
X128266510Y-123730261D01*
X128266507Y-123730261D01*
X128171952Y-123769427D01*
X128102482Y-123776895D01*
X128040003Y-123745619D01*
X128004351Y-123685530D01*
X128000500Y-123654865D01*
X128000500Y-123434110D01*
X128000500Y-123434108D01*
X127966392Y-123306814D01*
X127900500Y-123192686D01*
X127807314Y-123099500D01*
X127750250Y-123066554D01*
X127693187Y-123033608D01*
X127629539Y-123016554D01*
X127565892Y-122999500D01*
X127565891Y-122999500D01*
X124624500Y-122999500D01*
X124557461Y-122979815D01*
X124511706Y-122927011D01*
X124500500Y-122875500D01*
X124500500Y-118821153D01*
X127199500Y-118821153D01*
X127199500Y-118978846D01*
X127230261Y-119133489D01*
X127230264Y-119133501D01*
X127290602Y-119279172D01*
X127290609Y-119279185D01*
X127378602Y-119410874D01*
X127384252Y-119428920D01*
X127394477Y-119444830D01*
X127398928Y-119475789D01*
X127399480Y-119477551D01*
X127399500Y-119479765D01*
X127399500Y-119520234D01*
X127379815Y-119587273D01*
X127378602Y-119589125D01*
X127290609Y-119720814D01*
X127290602Y-119720827D01*
X127230264Y-119866498D01*
X127230261Y-119866510D01*
X127199500Y-120021153D01*
X127199500Y-120178846D01*
X127230261Y-120333489D01*
X127230264Y-120333501D01*
X127290602Y-120479172D01*
X127290609Y-120479185D01*
X127378210Y-120610288D01*
X127378213Y-120610292D01*
X127489707Y-120721786D01*
X127489711Y-120721789D01*
X127620814Y-120809390D01*
X127620827Y-120809397D01*
X127766498Y-120869735D01*
X127766503Y-120869737D01*
X127921153Y-120900499D01*
X127921156Y-120900500D01*
X127921158Y-120900500D01*
X128078844Y-120900500D01*
X128078845Y-120900499D01*
X128233497Y-120869737D01*
X128379179Y-120809394D01*
X128510289Y-120721789D01*
X128621789Y-120610289D01*
X128709394Y-120479179D01*
X128769737Y-120333497D01*
X128800500Y-120178842D01*
X128800500Y-120021158D01*
X128800500Y-120021155D01*
X128800499Y-120021153D01*
X128785112Y-119943797D01*
X128769737Y-119866503D01*
X128766026Y-119857544D01*
X128709397Y-119720827D01*
X128709390Y-119720814D01*
X128621398Y-119589125D01*
X128615747Y-119571078D01*
X128605523Y-119555169D01*
X128601071Y-119524207D01*
X128600520Y-119522447D01*
X128600500Y-119520234D01*
X128600500Y-119479765D01*
X128620185Y-119412726D01*
X128621398Y-119410874D01*
X128709390Y-119279185D01*
X128709390Y-119279184D01*
X128709394Y-119279179D01*
X128769737Y-119133497D01*
X128800500Y-118978842D01*
X128800500Y-118821158D01*
X128800500Y-118821155D01*
X128800499Y-118821153D01*
X133199500Y-118821153D01*
X133199500Y-118978846D01*
X133230261Y-119133489D01*
X133230264Y-119133501D01*
X133290602Y-119279172D01*
X133290609Y-119279185D01*
X133378602Y-119410874D01*
X133384252Y-119428920D01*
X133394477Y-119444830D01*
X133398928Y-119475789D01*
X133399480Y-119477551D01*
X133399500Y-119479765D01*
X133399500Y-119520234D01*
X133379815Y-119587273D01*
X133378602Y-119589125D01*
X133290609Y-119720814D01*
X133290602Y-119720827D01*
X133230264Y-119866498D01*
X133230261Y-119866510D01*
X133199500Y-120021153D01*
X133199500Y-120178846D01*
X133230261Y-120333489D01*
X133230264Y-120333501D01*
X133290602Y-120479172D01*
X133290609Y-120479185D01*
X133378210Y-120610288D01*
X133378213Y-120610292D01*
X133489707Y-120721786D01*
X133489711Y-120721789D01*
X133620814Y-120809390D01*
X133620827Y-120809397D01*
X133766498Y-120869735D01*
X133766503Y-120869737D01*
X133921153Y-120900499D01*
X133921156Y-120900500D01*
X133921158Y-120900500D01*
X134078844Y-120900500D01*
X134078845Y-120900499D01*
X134233497Y-120869737D01*
X134379179Y-120809394D01*
X134510289Y-120721789D01*
X134621789Y-120610289D01*
X134709394Y-120479179D01*
X134769737Y-120333497D01*
X134800500Y-120178842D01*
X134800500Y-120021158D01*
X134800500Y-120021155D01*
X134800499Y-120021153D01*
X134785112Y-119943797D01*
X134769737Y-119866503D01*
X134766026Y-119857544D01*
X134709397Y-119720827D01*
X134709390Y-119720814D01*
X134621398Y-119589125D01*
X134615747Y-119571078D01*
X134605523Y-119555169D01*
X134601071Y-119524207D01*
X134600520Y-119522447D01*
X134600500Y-119520234D01*
X134600500Y-119479765D01*
X134620185Y-119412726D01*
X134621398Y-119410874D01*
X134709390Y-119279185D01*
X134709390Y-119279184D01*
X134709394Y-119279179D01*
X134769737Y-119133497D01*
X134800500Y-118978842D01*
X134800500Y-118821158D01*
X134800500Y-118821155D01*
X134800499Y-118821153D01*
X139199500Y-118821153D01*
X139199500Y-118978846D01*
X139230261Y-119133489D01*
X139230264Y-119133501D01*
X139290602Y-119279172D01*
X139290609Y-119279185D01*
X139378602Y-119410874D01*
X139384252Y-119428920D01*
X139394477Y-119444830D01*
X139398928Y-119475789D01*
X139399480Y-119477551D01*
X139399500Y-119479765D01*
X139399500Y-119520234D01*
X139379815Y-119587273D01*
X139378602Y-119589125D01*
X139290609Y-119720814D01*
X139290602Y-119720827D01*
X139230264Y-119866498D01*
X139230261Y-119866510D01*
X139199500Y-120021153D01*
X139199500Y-120178846D01*
X139230261Y-120333489D01*
X139230264Y-120333501D01*
X139290602Y-120479172D01*
X139290609Y-120479185D01*
X139378210Y-120610288D01*
X139378213Y-120610292D01*
X139489707Y-120721786D01*
X139489711Y-120721789D01*
X139620814Y-120809390D01*
X139620827Y-120809397D01*
X139766498Y-120869735D01*
X139766503Y-120869737D01*
X139921153Y-120900499D01*
X139921156Y-120900500D01*
X139921158Y-120900500D01*
X140078844Y-120900500D01*
X140078845Y-120900499D01*
X140233497Y-120869737D01*
X140379179Y-120809394D01*
X140510289Y-120721789D01*
X140621789Y-120610289D01*
X140709394Y-120479179D01*
X140769737Y-120333497D01*
X140800500Y-120178842D01*
X140800500Y-120021158D01*
X140800500Y-120021155D01*
X140800499Y-120021153D01*
X140785112Y-119943797D01*
X140769737Y-119866503D01*
X140766026Y-119857544D01*
X140709397Y-119720827D01*
X140709390Y-119720814D01*
X140621398Y-119589125D01*
X140615747Y-119571078D01*
X140605523Y-119555169D01*
X140601071Y-119524207D01*
X140600520Y-119522447D01*
X140600500Y-119520234D01*
X140600500Y-119479765D01*
X140620185Y-119412726D01*
X140621398Y-119410874D01*
X140709390Y-119279185D01*
X140709390Y-119279184D01*
X140709394Y-119279179D01*
X140769737Y-119133497D01*
X140800500Y-118978842D01*
X140800500Y-118821158D01*
X140800500Y-118821155D01*
X140800499Y-118821153D01*
X145199500Y-118821153D01*
X145199500Y-118978846D01*
X145230261Y-119133489D01*
X145230264Y-119133501D01*
X145290602Y-119279172D01*
X145290609Y-119279185D01*
X145378602Y-119410874D01*
X145384252Y-119428920D01*
X145394477Y-119444830D01*
X145398928Y-119475789D01*
X145399480Y-119477551D01*
X145399500Y-119479765D01*
X145399500Y-119520234D01*
X145379815Y-119587273D01*
X145378602Y-119589125D01*
X145290609Y-119720814D01*
X145290602Y-119720827D01*
X145230264Y-119866498D01*
X145230261Y-119866510D01*
X145199500Y-120021153D01*
X145199500Y-120178846D01*
X145230261Y-120333489D01*
X145230264Y-120333501D01*
X145290602Y-120479172D01*
X145290609Y-120479185D01*
X145378210Y-120610288D01*
X145378213Y-120610292D01*
X145489707Y-120721786D01*
X145489711Y-120721789D01*
X145620814Y-120809390D01*
X145620827Y-120809397D01*
X145766498Y-120869735D01*
X145766503Y-120869737D01*
X145921153Y-120900499D01*
X145921156Y-120900500D01*
X145921158Y-120900500D01*
X146078844Y-120900500D01*
X146078845Y-120900499D01*
X146233497Y-120869737D01*
X146379179Y-120809394D01*
X146510289Y-120721789D01*
X146621789Y-120610289D01*
X146709394Y-120479179D01*
X146769737Y-120333497D01*
X146800500Y-120178842D01*
X146800500Y-120021158D01*
X146800500Y-120021155D01*
X146800499Y-120021153D01*
X146785112Y-119943797D01*
X146769737Y-119866503D01*
X146766026Y-119857544D01*
X146709397Y-119720827D01*
X146709390Y-119720814D01*
X146621398Y-119589125D01*
X146615747Y-119571078D01*
X146605523Y-119555169D01*
X146601071Y-119524207D01*
X146600520Y-119522447D01*
X146600500Y-119520234D01*
X146600500Y-119479765D01*
X146620185Y-119412726D01*
X146621398Y-119410874D01*
X146709390Y-119279185D01*
X146709390Y-119279184D01*
X146709394Y-119279179D01*
X146769737Y-119133497D01*
X146800500Y-118978842D01*
X146800500Y-118821158D01*
X146800500Y-118821155D01*
X146800499Y-118821153D01*
X146769738Y-118666510D01*
X146769737Y-118666503D01*
X146730919Y-118572787D01*
X146709397Y-118520827D01*
X146709390Y-118520814D01*
X146621789Y-118389710D01*
X146510292Y-118278213D01*
X146510288Y-118278210D01*
X146379185Y-118190609D01*
X146379172Y-118190602D01*
X146233501Y-118130264D01*
X146233489Y-118130261D01*
X146078845Y-118099500D01*
X146078842Y-118099500D01*
X145921158Y-118099500D01*
X145921155Y-118099500D01*
X145766510Y-118130261D01*
X145766498Y-118130264D01*
X145620827Y-118190602D01*
X145620814Y-118190609D01*
X145489711Y-118278210D01*
X145489707Y-118278213D01*
X145378213Y-118389707D01*
X145378211Y-118389710D01*
X145290609Y-118520814D01*
X145290602Y-118520827D01*
X145230264Y-118666498D01*
X145230261Y-118666510D01*
X145199500Y-118821153D01*
X140800499Y-118821153D01*
X140769738Y-118666510D01*
X140769737Y-118666503D01*
X140730919Y-118572787D01*
X140709397Y-118520827D01*
X140709390Y-118520814D01*
X140621789Y-118389710D01*
X140510292Y-118278213D01*
X140510288Y-118278210D01*
X140379185Y-118190609D01*
X140379172Y-118190602D01*
X140233501Y-118130264D01*
X140233489Y-118130261D01*
X140078845Y-118099500D01*
X140078842Y-118099500D01*
X139921158Y-118099500D01*
X139921155Y-118099500D01*
X139766510Y-118130261D01*
X139766498Y-118130264D01*
X139620827Y-118190602D01*
X139620814Y-118190609D01*
X139489711Y-118278210D01*
X139489707Y-118278213D01*
X139378213Y-118389707D01*
X139378211Y-118389710D01*
X139290609Y-118520814D01*
X139290602Y-118520827D01*
X139230264Y-118666498D01*
X139230261Y-118666510D01*
X139199500Y-118821153D01*
X134800499Y-118821153D01*
X134769738Y-118666510D01*
X134769737Y-118666503D01*
X134730919Y-118572787D01*
X134709397Y-118520827D01*
X134709390Y-118520814D01*
X134621789Y-118389710D01*
X134510292Y-118278213D01*
X134510288Y-118278210D01*
X134379185Y-118190609D01*
X134379172Y-118190602D01*
X134233501Y-118130264D01*
X134233489Y-118130261D01*
X134078845Y-118099500D01*
X134078842Y-118099500D01*
X133921158Y-118099500D01*
X133921155Y-118099500D01*
X133766510Y-118130261D01*
X133766498Y-118130264D01*
X133620827Y-118190602D01*
X133620814Y-118190609D01*
X133489711Y-118278210D01*
X133489707Y-118278213D01*
X133378213Y-118389707D01*
X133378211Y-118389710D01*
X133290609Y-118520814D01*
X133290602Y-118520827D01*
X133230264Y-118666498D01*
X133230261Y-118666510D01*
X133199500Y-118821153D01*
X128800499Y-118821153D01*
X128769738Y-118666510D01*
X128769737Y-118666503D01*
X128730919Y-118572787D01*
X128709397Y-118520827D01*
X128709390Y-118520814D01*
X128621789Y-118389710D01*
X128510292Y-118278213D01*
X128510288Y-118278210D01*
X128379185Y-118190609D01*
X128379172Y-118190602D01*
X128233501Y-118130264D01*
X128233489Y-118130261D01*
X128078845Y-118099500D01*
X128078842Y-118099500D01*
X127921158Y-118099500D01*
X127921155Y-118099500D01*
X127766510Y-118130261D01*
X127766498Y-118130264D01*
X127620827Y-118190602D01*
X127620814Y-118190609D01*
X127489711Y-118278210D01*
X127489707Y-118278213D01*
X127378213Y-118389707D01*
X127378211Y-118389710D01*
X127290609Y-118520814D01*
X127290602Y-118520827D01*
X127230264Y-118666498D01*
X127230261Y-118666510D01*
X127199500Y-118821153D01*
X124500500Y-118821153D01*
X124500500Y-112821153D01*
X127199500Y-112821153D01*
X127199500Y-112978846D01*
X127230261Y-113133489D01*
X127230264Y-113133501D01*
X127290602Y-113279172D01*
X127290609Y-113279185D01*
X127378602Y-113410874D01*
X127384252Y-113428920D01*
X127394477Y-113444830D01*
X127398928Y-113475789D01*
X127399480Y-113477551D01*
X127399500Y-113479765D01*
X127399500Y-113520234D01*
X127379815Y-113587273D01*
X127378602Y-113589125D01*
X127290609Y-113720814D01*
X127290602Y-113720827D01*
X127230264Y-113866498D01*
X127230261Y-113866510D01*
X127199500Y-114021153D01*
X127199500Y-114178846D01*
X127230261Y-114333489D01*
X127230264Y-114333501D01*
X127290602Y-114479172D01*
X127290609Y-114479185D01*
X127378210Y-114610288D01*
X127378213Y-114610292D01*
X127489707Y-114721786D01*
X127489711Y-114721789D01*
X127620814Y-114809390D01*
X127620827Y-114809397D01*
X127766498Y-114869735D01*
X127766503Y-114869737D01*
X127921153Y-114900499D01*
X127921156Y-114900500D01*
X127921158Y-114900500D01*
X128078844Y-114900500D01*
X128078845Y-114900499D01*
X128233497Y-114869737D01*
X128379179Y-114809394D01*
X128510289Y-114721789D01*
X128621789Y-114610289D01*
X128709394Y-114479179D01*
X128769737Y-114333497D01*
X128800500Y-114178842D01*
X128800500Y-114021158D01*
X128800500Y-114021155D01*
X128800499Y-114021153D01*
X128774196Y-113888920D01*
X128769737Y-113866503D01*
X128769735Y-113866498D01*
X128709397Y-113720827D01*
X128709390Y-113720814D01*
X128621398Y-113589125D01*
X128615747Y-113571078D01*
X128605523Y-113555169D01*
X128601071Y-113524207D01*
X128600520Y-113522447D01*
X128600500Y-113520234D01*
X128600500Y-113479765D01*
X128620185Y-113412726D01*
X128621398Y-113410874D01*
X128709390Y-113279185D01*
X128709390Y-113279184D01*
X128709394Y-113279179D01*
X128769737Y-113133497D01*
X128800500Y-112978842D01*
X128800500Y-112821158D01*
X128800500Y-112821155D01*
X128800499Y-112821153D01*
X133199500Y-112821153D01*
X133199500Y-112978846D01*
X133230261Y-113133489D01*
X133230264Y-113133501D01*
X133290602Y-113279172D01*
X133290609Y-113279185D01*
X133378602Y-113410874D01*
X133384252Y-113428920D01*
X133394477Y-113444830D01*
X133398928Y-113475789D01*
X133399480Y-113477551D01*
X133399500Y-113479765D01*
X133399500Y-113520234D01*
X133379815Y-113587273D01*
X133378602Y-113589125D01*
X133290609Y-113720814D01*
X133290602Y-113720827D01*
X133230264Y-113866498D01*
X133230261Y-113866510D01*
X133199500Y-114021153D01*
X133199500Y-114178846D01*
X133230261Y-114333489D01*
X133230264Y-114333501D01*
X133290602Y-114479172D01*
X133290609Y-114479185D01*
X133378210Y-114610288D01*
X133378213Y-114610292D01*
X133489707Y-114721786D01*
X133489711Y-114721789D01*
X133620814Y-114809390D01*
X133620827Y-114809397D01*
X133766498Y-114869735D01*
X133766503Y-114869737D01*
X133921153Y-114900499D01*
X133921156Y-114900500D01*
X133921158Y-114900500D01*
X134078844Y-114900500D01*
X134078845Y-114900499D01*
X134233497Y-114869737D01*
X134379179Y-114809394D01*
X134510289Y-114721789D01*
X134621789Y-114610289D01*
X134709394Y-114479179D01*
X134769737Y-114333497D01*
X134800500Y-114178842D01*
X134800500Y-114021158D01*
X134800500Y-114021155D01*
X134800499Y-114021153D01*
X134774196Y-113888920D01*
X134769737Y-113866503D01*
X134769735Y-113866498D01*
X134709397Y-113720827D01*
X134709390Y-113720814D01*
X134621398Y-113589125D01*
X134615747Y-113571078D01*
X134605523Y-113555169D01*
X134601071Y-113524207D01*
X134600520Y-113522447D01*
X134600500Y-113520234D01*
X134600500Y-113479765D01*
X134620185Y-113412726D01*
X134621398Y-113410874D01*
X134709390Y-113279185D01*
X134709390Y-113279184D01*
X134709394Y-113279179D01*
X134769737Y-113133497D01*
X134800500Y-112978842D01*
X134800500Y-112821158D01*
X134800500Y-112821155D01*
X134800499Y-112821153D01*
X139199500Y-112821153D01*
X139199500Y-112978846D01*
X139230261Y-113133489D01*
X139230264Y-113133501D01*
X139290602Y-113279172D01*
X139290609Y-113279185D01*
X139378602Y-113410874D01*
X139384252Y-113428920D01*
X139394477Y-113444830D01*
X139398928Y-113475789D01*
X139399480Y-113477551D01*
X139399500Y-113479765D01*
X139399500Y-113520234D01*
X139379815Y-113587273D01*
X139378602Y-113589125D01*
X139290609Y-113720814D01*
X139290602Y-113720827D01*
X139230264Y-113866498D01*
X139230261Y-113866510D01*
X139199500Y-114021153D01*
X139199500Y-114178846D01*
X139230261Y-114333489D01*
X139230264Y-114333501D01*
X139290602Y-114479172D01*
X139290609Y-114479185D01*
X139378210Y-114610288D01*
X139378213Y-114610292D01*
X139489707Y-114721786D01*
X139489711Y-114721789D01*
X139620814Y-114809390D01*
X139620827Y-114809397D01*
X139766498Y-114869735D01*
X139766503Y-114869737D01*
X139921153Y-114900499D01*
X139921156Y-114900500D01*
X139921158Y-114900500D01*
X140078844Y-114900500D01*
X140078845Y-114900499D01*
X140233497Y-114869737D01*
X140379179Y-114809394D01*
X140510289Y-114721789D01*
X140621789Y-114610289D01*
X140709394Y-114479179D01*
X140769737Y-114333497D01*
X140800500Y-114178842D01*
X140800500Y-114021158D01*
X140800500Y-114021155D01*
X140800499Y-114021153D01*
X140774196Y-113888920D01*
X140769737Y-113866503D01*
X140769735Y-113866498D01*
X140709397Y-113720827D01*
X140709390Y-113720814D01*
X140621398Y-113589125D01*
X140615747Y-113571078D01*
X140605523Y-113555169D01*
X140601071Y-113524207D01*
X140600520Y-113522447D01*
X140600500Y-113520234D01*
X140600500Y-113479765D01*
X140620185Y-113412726D01*
X140621398Y-113410874D01*
X140709390Y-113279185D01*
X140709390Y-113279184D01*
X140709394Y-113279179D01*
X140769737Y-113133497D01*
X140800500Y-112978842D01*
X140800500Y-112821158D01*
X140800500Y-112821155D01*
X140800499Y-112821153D01*
X145199500Y-112821153D01*
X145199500Y-112978846D01*
X145230261Y-113133489D01*
X145230264Y-113133501D01*
X145290602Y-113279172D01*
X145290609Y-113279185D01*
X145378602Y-113410874D01*
X145384252Y-113428920D01*
X145394477Y-113444830D01*
X145398928Y-113475789D01*
X145399480Y-113477551D01*
X145399500Y-113479765D01*
X145399500Y-113520234D01*
X145379815Y-113587273D01*
X145378602Y-113589125D01*
X145290609Y-113720814D01*
X145290602Y-113720827D01*
X145230264Y-113866498D01*
X145230261Y-113866510D01*
X145199500Y-114021153D01*
X145199500Y-114178846D01*
X145230261Y-114333489D01*
X145230264Y-114333501D01*
X145290602Y-114479172D01*
X145290609Y-114479185D01*
X145378210Y-114610288D01*
X145378213Y-114610292D01*
X145489707Y-114721786D01*
X145489711Y-114721789D01*
X145620814Y-114809390D01*
X145620827Y-114809397D01*
X145766498Y-114869735D01*
X145766503Y-114869737D01*
X145921153Y-114900499D01*
X145921156Y-114900500D01*
X145921158Y-114900500D01*
X146078844Y-114900500D01*
X146078845Y-114900499D01*
X146233497Y-114869737D01*
X146379179Y-114809394D01*
X146510289Y-114721789D01*
X146621789Y-114610289D01*
X146709394Y-114479179D01*
X146769737Y-114333497D01*
X146800500Y-114178842D01*
X146800500Y-114021158D01*
X146800500Y-114021155D01*
X146800499Y-114021153D01*
X146774196Y-113888920D01*
X146769737Y-113866503D01*
X146769735Y-113866498D01*
X146709397Y-113720827D01*
X146709390Y-113720814D01*
X146621398Y-113589125D01*
X146615747Y-113571078D01*
X146605523Y-113555169D01*
X146601071Y-113524207D01*
X146600520Y-113522447D01*
X146600500Y-113520234D01*
X146600500Y-113479765D01*
X146620185Y-113412726D01*
X146621398Y-113410874D01*
X146709390Y-113279185D01*
X146709390Y-113279184D01*
X146709394Y-113279179D01*
X146769737Y-113133497D01*
X146800500Y-112978842D01*
X146800500Y-112821158D01*
X146800500Y-112821155D01*
X146800499Y-112821153D01*
X146782419Y-112730261D01*
X146769737Y-112666503D01*
X146769735Y-112666498D01*
X146709397Y-112520827D01*
X146709390Y-112520814D01*
X146621789Y-112389711D01*
X146621786Y-112389707D01*
X146510292Y-112278213D01*
X146510288Y-112278210D01*
X146379185Y-112190609D01*
X146379172Y-112190602D01*
X146233501Y-112130264D01*
X146233489Y-112130261D01*
X146078845Y-112099500D01*
X146078842Y-112099500D01*
X145921158Y-112099500D01*
X145921155Y-112099500D01*
X145766510Y-112130261D01*
X145766498Y-112130264D01*
X145620827Y-112190602D01*
X145620814Y-112190609D01*
X145489711Y-112278210D01*
X145489707Y-112278213D01*
X145378213Y-112389707D01*
X145378210Y-112389711D01*
X145290609Y-112520814D01*
X145290602Y-112520827D01*
X145230264Y-112666498D01*
X145230261Y-112666510D01*
X145199500Y-112821153D01*
X140800499Y-112821153D01*
X140782419Y-112730261D01*
X140769737Y-112666503D01*
X140769735Y-112666498D01*
X140709397Y-112520827D01*
X140709390Y-112520814D01*
X140621789Y-112389711D01*
X140621786Y-112389707D01*
X140510292Y-112278213D01*
X140510288Y-112278210D01*
X140379185Y-112190609D01*
X140379172Y-112190602D01*
X140233501Y-112130264D01*
X140233489Y-112130261D01*
X140078845Y-112099500D01*
X140078842Y-112099500D01*
X139921158Y-112099500D01*
X139921155Y-112099500D01*
X139766510Y-112130261D01*
X139766498Y-112130264D01*
X139620827Y-112190602D01*
X139620814Y-112190609D01*
X139489711Y-112278210D01*
X139489707Y-112278213D01*
X139378213Y-112389707D01*
X139378210Y-112389711D01*
X139290609Y-112520814D01*
X139290602Y-112520827D01*
X139230264Y-112666498D01*
X139230261Y-112666510D01*
X139199500Y-112821153D01*
X134800499Y-112821153D01*
X134782419Y-112730261D01*
X134769737Y-112666503D01*
X134769735Y-112666498D01*
X134709397Y-112520827D01*
X134709390Y-112520814D01*
X134621789Y-112389711D01*
X134621786Y-112389707D01*
X134510292Y-112278213D01*
X134510288Y-112278210D01*
X134379185Y-112190609D01*
X134379172Y-112190602D01*
X134233501Y-112130264D01*
X134233489Y-112130261D01*
X134078845Y-112099500D01*
X134078842Y-112099500D01*
X133921158Y-112099500D01*
X133921155Y-112099500D01*
X133766510Y-112130261D01*
X133766498Y-112130264D01*
X133620827Y-112190602D01*
X133620814Y-112190609D01*
X133489711Y-112278210D01*
X133489707Y-112278213D01*
X133378213Y-112389707D01*
X133378210Y-112389711D01*
X133290609Y-112520814D01*
X133290602Y-112520827D01*
X133230264Y-112666498D01*
X133230261Y-112666510D01*
X133199500Y-112821153D01*
X128800499Y-112821153D01*
X128782419Y-112730261D01*
X128769737Y-112666503D01*
X128769735Y-112666498D01*
X128709397Y-112520827D01*
X128709390Y-112520814D01*
X128621789Y-112389711D01*
X128621786Y-112389707D01*
X128510292Y-112278213D01*
X128510288Y-112278210D01*
X128379185Y-112190609D01*
X128379172Y-112190602D01*
X128233501Y-112130264D01*
X128233489Y-112130261D01*
X128078845Y-112099500D01*
X128078842Y-112099500D01*
X127921158Y-112099500D01*
X127921155Y-112099500D01*
X127766510Y-112130261D01*
X127766498Y-112130264D01*
X127620827Y-112190602D01*
X127620814Y-112190609D01*
X127489711Y-112278210D01*
X127489707Y-112278213D01*
X127378213Y-112389707D01*
X127378210Y-112389711D01*
X127290609Y-112520814D01*
X127290602Y-112520827D01*
X127230264Y-112666498D01*
X127230261Y-112666510D01*
X127199500Y-112821153D01*
X124500500Y-112821153D01*
X124500500Y-106821153D01*
X127199500Y-106821153D01*
X127199500Y-106978846D01*
X127230261Y-107133489D01*
X127230264Y-107133501D01*
X127290602Y-107279172D01*
X127290609Y-107279185D01*
X127378602Y-107410874D01*
X127384252Y-107428920D01*
X127394477Y-107444830D01*
X127398928Y-107475789D01*
X127399480Y-107477551D01*
X127399500Y-107479765D01*
X127399500Y-107520234D01*
X127379815Y-107587273D01*
X127378602Y-107589125D01*
X127290609Y-107720814D01*
X127290602Y-107720827D01*
X127230264Y-107866498D01*
X127230261Y-107866510D01*
X127199500Y-108021153D01*
X127199500Y-108178846D01*
X127230261Y-108333489D01*
X127230264Y-108333501D01*
X127290602Y-108479172D01*
X127290609Y-108479185D01*
X127378210Y-108610288D01*
X127378213Y-108610292D01*
X127489707Y-108721786D01*
X127489711Y-108721789D01*
X127620814Y-108809390D01*
X127620827Y-108809397D01*
X127766498Y-108869735D01*
X127766503Y-108869737D01*
X127921153Y-108900499D01*
X127921156Y-108900500D01*
X127921158Y-108900500D01*
X128078844Y-108900500D01*
X128078845Y-108900499D01*
X128233497Y-108869737D01*
X128379179Y-108809394D01*
X128510289Y-108721789D01*
X128621789Y-108610289D01*
X128709394Y-108479179D01*
X128769737Y-108333497D01*
X128800500Y-108178842D01*
X128800500Y-108021158D01*
X128800500Y-108021155D01*
X128800499Y-108021153D01*
X128792515Y-107981013D01*
X128769737Y-107866503D01*
X128769735Y-107866498D01*
X128709397Y-107720827D01*
X128709390Y-107720814D01*
X128621398Y-107589125D01*
X128615747Y-107571078D01*
X128605523Y-107555169D01*
X128601071Y-107524207D01*
X128600520Y-107522447D01*
X128600500Y-107520234D01*
X128600500Y-107479765D01*
X128620185Y-107412726D01*
X128621398Y-107410874D01*
X128709390Y-107279185D01*
X128709390Y-107279184D01*
X128709394Y-107279179D01*
X128769737Y-107133497D01*
X128800500Y-106978842D01*
X128800500Y-106821158D01*
X128800500Y-106821155D01*
X128800499Y-106821153D01*
X133199500Y-106821153D01*
X133199500Y-106978846D01*
X133230261Y-107133489D01*
X133230264Y-107133501D01*
X133290602Y-107279172D01*
X133290609Y-107279185D01*
X133378602Y-107410874D01*
X133384252Y-107428920D01*
X133394477Y-107444830D01*
X133398928Y-107475789D01*
X133399480Y-107477551D01*
X133399500Y-107479765D01*
X133399500Y-107520234D01*
X133379815Y-107587273D01*
X133378602Y-107589125D01*
X133290609Y-107720814D01*
X133290602Y-107720827D01*
X133230264Y-107866498D01*
X133230261Y-107866510D01*
X133199500Y-108021153D01*
X133199500Y-108178846D01*
X133230261Y-108333489D01*
X133230264Y-108333501D01*
X133290602Y-108479172D01*
X133290609Y-108479185D01*
X133378210Y-108610288D01*
X133378213Y-108610292D01*
X133489707Y-108721786D01*
X133489711Y-108721789D01*
X133620814Y-108809390D01*
X133620827Y-108809397D01*
X133766498Y-108869735D01*
X133766503Y-108869737D01*
X133921153Y-108900499D01*
X133921156Y-108900500D01*
X133921158Y-108900500D01*
X134078844Y-108900500D01*
X134078845Y-108900499D01*
X134233497Y-108869737D01*
X134379179Y-108809394D01*
X134510289Y-108721789D01*
X134621789Y-108610289D01*
X134709394Y-108479179D01*
X134769737Y-108333497D01*
X134800500Y-108178842D01*
X134800500Y-108021158D01*
X134800500Y-108021155D01*
X134800499Y-108021153D01*
X134792515Y-107981013D01*
X134769737Y-107866503D01*
X134769735Y-107866498D01*
X134709397Y-107720827D01*
X134709390Y-107720814D01*
X134621398Y-107589125D01*
X134615747Y-107571078D01*
X134605523Y-107555169D01*
X134601071Y-107524207D01*
X134600520Y-107522447D01*
X134600500Y-107520234D01*
X134600500Y-107479765D01*
X134620185Y-107412726D01*
X134621398Y-107410874D01*
X134709390Y-107279185D01*
X134709390Y-107279184D01*
X134709394Y-107279179D01*
X134769737Y-107133497D01*
X134800500Y-106978842D01*
X134800500Y-106821158D01*
X134800500Y-106821155D01*
X134800499Y-106821153D01*
X139199500Y-106821153D01*
X139199500Y-106978846D01*
X139230261Y-107133489D01*
X139230264Y-107133501D01*
X139290602Y-107279172D01*
X139290609Y-107279185D01*
X139378602Y-107410874D01*
X139384252Y-107428920D01*
X139394477Y-107444830D01*
X139398928Y-107475789D01*
X139399480Y-107477551D01*
X139399500Y-107479765D01*
X139399500Y-107520234D01*
X139379815Y-107587273D01*
X139378602Y-107589125D01*
X139290609Y-107720814D01*
X139290602Y-107720827D01*
X139230264Y-107866498D01*
X139230261Y-107866510D01*
X139199500Y-108021153D01*
X139199500Y-108178846D01*
X139230261Y-108333489D01*
X139230264Y-108333501D01*
X139290602Y-108479172D01*
X139290609Y-108479185D01*
X139378210Y-108610288D01*
X139378213Y-108610292D01*
X139489707Y-108721786D01*
X139489711Y-108721789D01*
X139620814Y-108809390D01*
X139620827Y-108809397D01*
X139766498Y-108869735D01*
X139766503Y-108869737D01*
X139921153Y-108900499D01*
X139921156Y-108900500D01*
X139921158Y-108900500D01*
X140078844Y-108900500D01*
X140078845Y-108900499D01*
X140233497Y-108869737D01*
X140379179Y-108809394D01*
X140510289Y-108721789D01*
X140621789Y-108610289D01*
X140709394Y-108479179D01*
X140769737Y-108333497D01*
X140800500Y-108178842D01*
X140800500Y-108021158D01*
X140800500Y-108021155D01*
X140800499Y-108021153D01*
X140792515Y-107981013D01*
X140769737Y-107866503D01*
X140769735Y-107866498D01*
X140709397Y-107720827D01*
X140709390Y-107720814D01*
X140621398Y-107589125D01*
X140615747Y-107571078D01*
X140605523Y-107555169D01*
X140601071Y-107524207D01*
X140600520Y-107522447D01*
X140600500Y-107520234D01*
X140600500Y-107479765D01*
X140620185Y-107412726D01*
X140621398Y-107410874D01*
X140709390Y-107279185D01*
X140709390Y-107279184D01*
X140709394Y-107279179D01*
X140769737Y-107133497D01*
X140800500Y-106978842D01*
X140800500Y-106821158D01*
X140800500Y-106821155D01*
X140800499Y-106821153D01*
X145199500Y-106821153D01*
X145199500Y-106978846D01*
X145230261Y-107133489D01*
X145230264Y-107133501D01*
X145290602Y-107279172D01*
X145290609Y-107279185D01*
X145378602Y-107410874D01*
X145384252Y-107428920D01*
X145394477Y-107444830D01*
X145398928Y-107475789D01*
X145399480Y-107477551D01*
X145399500Y-107479765D01*
X145399500Y-107520234D01*
X145379815Y-107587273D01*
X145378602Y-107589125D01*
X145290609Y-107720814D01*
X145290602Y-107720827D01*
X145230264Y-107866498D01*
X145230261Y-107866510D01*
X145199500Y-108021153D01*
X145199500Y-108178846D01*
X145230261Y-108333489D01*
X145230264Y-108333501D01*
X145290602Y-108479172D01*
X145290609Y-108479185D01*
X145378210Y-108610288D01*
X145378213Y-108610292D01*
X145489707Y-108721786D01*
X145489711Y-108721789D01*
X145620814Y-108809390D01*
X145620827Y-108809397D01*
X145766498Y-108869735D01*
X145766503Y-108869737D01*
X145921153Y-108900499D01*
X145921156Y-108900500D01*
X145921158Y-108900500D01*
X146078844Y-108900500D01*
X146078845Y-108900499D01*
X146233497Y-108869737D01*
X146379179Y-108809394D01*
X146510289Y-108721789D01*
X146621789Y-108610289D01*
X146709394Y-108479179D01*
X146769737Y-108333497D01*
X146800500Y-108178842D01*
X146800500Y-108021158D01*
X146800500Y-108021155D01*
X146800499Y-108021153D01*
X146792515Y-107981013D01*
X146769737Y-107866503D01*
X146769735Y-107866498D01*
X146709397Y-107720827D01*
X146709390Y-107720814D01*
X146621398Y-107589125D01*
X146615747Y-107571078D01*
X146605523Y-107555169D01*
X146601071Y-107524207D01*
X146600520Y-107522447D01*
X146600500Y-107520234D01*
X146600500Y-107479765D01*
X146620185Y-107412726D01*
X146621398Y-107410874D01*
X146709390Y-107279185D01*
X146709390Y-107279184D01*
X146709394Y-107279179D01*
X146769737Y-107133497D01*
X146800500Y-106978842D01*
X146800500Y-106821158D01*
X146800500Y-106821155D01*
X146800499Y-106821153D01*
X146769738Y-106666510D01*
X146769737Y-106666503D01*
X146718354Y-106542452D01*
X146709397Y-106520827D01*
X146709390Y-106520814D01*
X146621789Y-106389711D01*
X146621786Y-106389707D01*
X146510292Y-106278213D01*
X146510288Y-106278210D01*
X146379185Y-106190609D01*
X146379172Y-106190602D01*
X146233501Y-106130264D01*
X146233489Y-106130261D01*
X146078845Y-106099500D01*
X146078842Y-106099500D01*
X145921158Y-106099500D01*
X145921155Y-106099500D01*
X145766510Y-106130261D01*
X145766498Y-106130264D01*
X145620827Y-106190602D01*
X145620814Y-106190609D01*
X145489711Y-106278210D01*
X145489707Y-106278213D01*
X145378213Y-106389707D01*
X145378210Y-106389711D01*
X145290609Y-106520814D01*
X145290602Y-106520827D01*
X145230264Y-106666498D01*
X145230261Y-106666510D01*
X145199500Y-106821153D01*
X140800499Y-106821153D01*
X140769738Y-106666510D01*
X140769737Y-106666503D01*
X140718354Y-106542452D01*
X140709397Y-106520827D01*
X140709390Y-106520814D01*
X140621789Y-106389711D01*
X140621786Y-106389707D01*
X140510292Y-106278213D01*
X140510288Y-106278210D01*
X140379185Y-106190609D01*
X140379172Y-106190602D01*
X140233501Y-106130264D01*
X140233489Y-106130261D01*
X140078845Y-106099500D01*
X140078842Y-106099500D01*
X139921158Y-106099500D01*
X139921155Y-106099500D01*
X139766510Y-106130261D01*
X139766498Y-106130264D01*
X139620827Y-106190602D01*
X139620814Y-106190609D01*
X139489711Y-106278210D01*
X139489707Y-106278213D01*
X139378213Y-106389707D01*
X139378210Y-106389711D01*
X139290609Y-106520814D01*
X139290602Y-106520827D01*
X139230264Y-106666498D01*
X139230261Y-106666510D01*
X139199500Y-106821153D01*
X134800499Y-106821153D01*
X134769738Y-106666510D01*
X134769737Y-106666503D01*
X134718354Y-106542452D01*
X134709397Y-106520827D01*
X134709390Y-106520814D01*
X134621789Y-106389711D01*
X134621786Y-106389707D01*
X134510292Y-106278213D01*
X134510288Y-106278210D01*
X134379185Y-106190609D01*
X134379172Y-106190602D01*
X134233501Y-106130264D01*
X134233489Y-106130261D01*
X134078845Y-106099500D01*
X134078842Y-106099500D01*
X133921158Y-106099500D01*
X133921155Y-106099500D01*
X133766510Y-106130261D01*
X133766498Y-106130264D01*
X133620827Y-106190602D01*
X133620814Y-106190609D01*
X133489711Y-106278210D01*
X133489707Y-106278213D01*
X133378213Y-106389707D01*
X133378210Y-106389711D01*
X133290609Y-106520814D01*
X133290602Y-106520827D01*
X133230264Y-106666498D01*
X133230261Y-106666510D01*
X133199500Y-106821153D01*
X128800499Y-106821153D01*
X128769738Y-106666510D01*
X128769737Y-106666503D01*
X128718354Y-106542452D01*
X128709397Y-106520827D01*
X128709390Y-106520814D01*
X128621789Y-106389711D01*
X128621786Y-106389707D01*
X128510292Y-106278213D01*
X128510288Y-106278210D01*
X128379185Y-106190609D01*
X128379172Y-106190602D01*
X128233501Y-106130264D01*
X128233489Y-106130261D01*
X128078845Y-106099500D01*
X128078842Y-106099500D01*
X127921158Y-106099500D01*
X127921155Y-106099500D01*
X127766510Y-106130261D01*
X127766498Y-106130264D01*
X127620827Y-106190602D01*
X127620814Y-106190609D01*
X127489711Y-106278210D01*
X127489707Y-106278213D01*
X127378213Y-106389707D01*
X127378210Y-106389711D01*
X127290609Y-106520814D01*
X127290602Y-106520827D01*
X127230264Y-106666498D01*
X127230261Y-106666510D01*
X127199500Y-106821153D01*
X124500500Y-106821153D01*
X124500500Y-104124500D01*
X124520185Y-104057461D01*
X124572989Y-104011706D01*
X124624500Y-104000500D01*
X127565890Y-104000500D01*
X127565892Y-104000500D01*
X127693186Y-103966392D01*
X127807314Y-103900500D01*
X127900500Y-103807314D01*
X127966392Y-103693186D01*
X128000500Y-103565892D01*
X128000500Y-103345134D01*
X128020185Y-103278095D01*
X128072989Y-103232340D01*
X128142147Y-103222396D01*
X128171950Y-103230572D01*
X128266503Y-103269737D01*
X128397047Y-103295704D01*
X128421153Y-103300499D01*
X128421156Y-103300500D01*
X128421158Y-103300500D01*
X128578844Y-103300500D01*
X128578845Y-103300499D01*
X128733497Y-103269737D01*
X128879179Y-103209394D01*
X129010289Y-103121789D01*
X129121789Y-103010289D01*
X129209394Y-102879179D01*
X129269737Y-102733497D01*
X129300500Y-102578842D01*
X129300500Y-102421158D01*
X129300500Y-102421155D01*
X129300499Y-102421153D01*
X129269738Y-102266510D01*
X129269737Y-102266503D01*
X129233427Y-102178842D01*
X129209397Y-102120827D01*
X129209390Y-102120814D01*
X129121789Y-101989711D01*
X129121786Y-101989707D01*
X129010292Y-101878213D01*
X129010288Y-101878210D01*
X128879185Y-101790609D01*
X128879172Y-101790602D01*
X128778048Y-101748716D01*
X128723644Y-101704875D01*
X128701579Y-101638581D01*
X128701500Y-101634155D01*
X128701500Y-101365845D01*
X128721185Y-101298806D01*
X128773989Y-101253051D01*
X128778048Y-101251284D01*
X128879172Y-101209397D01*
X128879172Y-101209396D01*
X128879179Y-101209394D01*
X129010289Y-101121789D01*
X129121789Y-101010289D01*
X129209394Y-100879179D01*
X129269737Y-100733497D01*
X129300500Y-100578842D01*
X129300638Y-100578150D01*
X129333023Y-100516239D01*
X129334518Y-100514716D01*
X129812416Y-100036819D01*
X129873739Y-100003334D01*
X129900097Y-100000500D01*
X133496561Y-100000500D01*
X133563600Y-100020185D01*
G37*
%TD.AperFunction*%
M02*
