%TF.GenerationSoftware,KiCad,Pcbnew,9.0.0*%
%TF.CreationDate,2025-04-18T16:03:12-04:00*%
%TF.ProjectId,SeniorProjectTouchpad,53656e69-6f72-4507-926f-6a656374546f,rev?*%
%TF.SameCoordinates,Original*%
%TF.FileFunction,Copper,L2,Bot*%
%TF.FilePolarity,Positive*%
%FSLAX46Y46*%
G04 Gerber Fmt 4.6, Leading zero omitted, Abs format (unit mm)*
G04 Created by KiCad (PCBNEW 9.0.0) date 2025-04-18 16:03:12*
%MOMM*%
%LPD*%
G01*
G04 APERTURE LIST*
%TA.AperFunction,Conductor*%
%ADD10C,0.200000*%
%TD*%
%TA.AperFunction,ViaPad*%
%ADD11C,0.600000*%
%TD*%
G04 APERTURE END LIST*
D10*
%TO.N,unconnected-(J1-Pad4)*%
X146030073Y-101000000D02*
X144000000Y-99100000D01*
X145930073Y-99100000D01*
X147900000Y-99100000D01*
X146030073Y-101000000D01*
%TA.AperFunction,Conductor*%
G36*
X146030073Y-101000000D02*
G01*
X144000000Y-99100000D01*
X145930073Y-99100000D01*
X147900000Y-99100000D01*
X146030073Y-101000000D01*
G37*
%TD.AperFunction*%
%TO.N,unconnected-(J1-Pad5)*%
X151900000Y-127100000D02*
X151900000Y-127900000D01*
X150000000Y-127900000D01*
X151900000Y-126000000D01*
X151900000Y-127100000D01*
%TA.AperFunction,Conductor*%
G36*
X151900000Y-127100000D02*
G01*
X151900000Y-127900000D01*
X150000000Y-127900000D01*
X151900000Y-126000000D01*
X151900000Y-127100000D01*
G37*
%TD.AperFunction*%
%TO.N,unconnected-(J1-Pad1)*%
X130000000Y-127900000D02*
X128100000Y-127900000D01*
X128100000Y-127100000D01*
X128100000Y-126000000D01*
X130000000Y-127900000D01*
%TA.AperFunction,Conductor*%
G36*
X130000000Y-127900000D02*
G01*
X128100000Y-127900000D01*
X128100000Y-127100000D01*
X128100000Y-126000000D01*
X130000000Y-127900000D01*
G37*
%TD.AperFunction*%
%TO.N,unconnected-(J1-Pad4)*%
X147800000Y-127805693D02*
X145989343Y-127805693D01*
X144200000Y-127805693D01*
X145989343Y-126005693D01*
X147800000Y-127805693D01*
%TA.AperFunction,Conductor*%
G36*
X147800000Y-127805693D02*
G01*
X145989343Y-127805693D01*
X144200000Y-127805693D01*
X145989343Y-126005693D01*
X147800000Y-127805693D01*
G37*
%TD.AperFunction*%
%TO.N,unconnected-(J1-Pad3)*%
X141800000Y-127805693D02*
X139989343Y-127805693D01*
X138200000Y-127805693D01*
X139989343Y-126005693D01*
X141800000Y-127805693D01*
%TA.AperFunction,Conductor*%
G36*
X141800000Y-127805693D02*
G01*
X139989343Y-127805693D01*
X138200000Y-127805693D01*
X139989343Y-126005693D01*
X141800000Y-127805693D01*
G37*
%TD.AperFunction*%
%TO.N,unconnected-(J1-Pad5)*%
X154500000Y-122500000D02*
X154100000Y-122900000D01*
X151900000Y-122900000D01*
X151900000Y-125000000D01*
X149500000Y-122500000D01*
X152000000Y-120000000D01*
X154500000Y-122500000D01*
%TA.AperFunction,Conductor*%
G36*
X154500000Y-122500000D02*
G01*
X154100000Y-122900000D01*
X151900000Y-122900000D01*
X151900000Y-125000000D01*
X149500000Y-122500000D01*
X152000000Y-120000000D01*
X154500000Y-122500000D01*
G37*
%TD.AperFunction*%
%TO.N,unconnected-(J1-Pad1)*%
X130500000Y-122500000D02*
X128100000Y-125000000D01*
X128100000Y-122900000D01*
X125900000Y-122900000D01*
X125500000Y-122500000D01*
X128000000Y-120000000D01*
X130500000Y-122500000D01*
%TA.AperFunction,Conductor*%
G36*
X130500000Y-122500000D02*
G01*
X128100000Y-125000000D01*
X128100000Y-122900000D01*
X125900000Y-122900000D01*
X125500000Y-122500000D01*
X128000000Y-120000000D01*
X130500000Y-122500000D01*
G37*
%TD.AperFunction*%
%TO.N,unconnected-(J1-Pad5)*%
X151900000Y-104100000D02*
X154100000Y-104100000D01*
X154500000Y-104500000D01*
X152000000Y-107000000D01*
X149500000Y-104500000D01*
X151900000Y-102000000D01*
X151900000Y-104100000D01*
%TA.AperFunction,Conductor*%
G36*
X151900000Y-104100000D02*
G01*
X154100000Y-104100000D01*
X154500000Y-104500000D01*
X152000000Y-107000000D01*
X149500000Y-104500000D01*
X151900000Y-102000000D01*
X151900000Y-104100000D01*
G37*
%TD.AperFunction*%
%TO.N,unconnected-(J1-Pad9)*%
X155300000Y-117250000D02*
X155300000Y-121650000D01*
X155000000Y-121950000D01*
X152500000Y-119450000D01*
X155000000Y-116950000D01*
X155300000Y-117250000D01*
%TA.AperFunction,Conductor*%
G36*
X155300000Y-117250000D02*
G01*
X155300000Y-121650000D01*
X155000000Y-121950000D01*
X152500000Y-119450000D01*
X155000000Y-116950000D01*
X155300000Y-117250000D01*
G37*
%TD.AperFunction*%
%TO.N,unconnected-(J1-Pad8)*%
X155300000Y-111300000D02*
X155300000Y-115700000D01*
X155000000Y-116000000D01*
X152500000Y-113500000D01*
X155000000Y-111000000D01*
X155300000Y-111300000D01*
%TA.AperFunction,Conductor*%
G36*
X155300000Y-111300000D02*
G01*
X155300000Y-115700000D01*
X155000000Y-116000000D01*
X152500000Y-113500000D01*
X155000000Y-111000000D01*
X155300000Y-111300000D01*
G37*
%TD.AperFunction*%
%TO.N,unconnected-(J1-Pad7)*%
X155300000Y-105300000D02*
X155300000Y-109700000D01*
X155000000Y-110000000D01*
X152500000Y-107500000D01*
X155000000Y-105000000D01*
X155300000Y-105300000D01*
%TA.AperFunction,Conductor*%
G36*
X155300000Y-105300000D02*
G01*
X155300000Y-109700000D01*
X155000000Y-110000000D01*
X152500000Y-107500000D01*
X155000000Y-105000000D01*
X155300000Y-105300000D01*
G37*
%TD.AperFunction*%
%TO.N,unconnected-(J1-Pad9)*%
X127400000Y-119500000D02*
X124900000Y-122000000D01*
X124650000Y-121750000D01*
X124650000Y-117250000D01*
X124900000Y-117000000D01*
X127400000Y-119500000D01*
%TA.AperFunction,Conductor*%
G36*
X127400000Y-119500000D02*
G01*
X124900000Y-122000000D01*
X124650000Y-121750000D01*
X124650000Y-117250000D01*
X124900000Y-117000000D01*
X127400000Y-119500000D01*
G37*
%TD.AperFunction*%
%TO.N,unconnected-(J1-Pad8)*%
X127400000Y-113500000D02*
X124900000Y-116000000D01*
X124650000Y-115750000D01*
X124650000Y-111250000D01*
X124900000Y-111000000D01*
X127400000Y-113500000D01*
%TA.AperFunction,Conductor*%
G36*
X127400000Y-113500000D02*
G01*
X124900000Y-116000000D01*
X124650000Y-115750000D01*
X124650000Y-111250000D01*
X124900000Y-111000000D01*
X127400000Y-113500000D01*
G37*
%TD.AperFunction*%
%TO.N,unconnected-(J1-Pad7)*%
X127350000Y-107450000D02*
X124850000Y-109950000D01*
X124600000Y-109700000D01*
X124600000Y-105200000D01*
X124850000Y-104950000D01*
X127350000Y-107450000D01*
%TA.AperFunction,Conductor*%
G36*
X127350000Y-107450000D02*
G01*
X124850000Y-109950000D01*
X124600000Y-109700000D01*
X124600000Y-105200000D01*
X124850000Y-104950000D01*
X127350000Y-107450000D01*
G37*
%TD.AperFunction*%
X133500000Y-107500000D02*
X131000000Y-110000000D01*
X128500000Y-107500000D01*
X131000000Y-105000000D01*
X133500000Y-107500000D01*
%TA.AperFunction,Conductor*%
G36*
X133500000Y-107500000D02*
G01*
X131000000Y-110000000D01*
X128500000Y-107500000D01*
X131000000Y-105000000D01*
X133500000Y-107500000D01*
G37*
%TD.AperFunction*%
%TO.N,unconnected-(J1-Pad1)*%
X130500000Y-104500000D02*
X128000000Y-107000000D01*
X125500000Y-104500000D01*
X125900000Y-104100000D01*
X128100000Y-104100000D01*
X128100000Y-102000000D01*
X130500000Y-104500000D01*
%TA.AperFunction,Conductor*%
G36*
X130500000Y-104500000D02*
G01*
X128000000Y-107000000D01*
X125500000Y-104500000D01*
X125900000Y-104100000D01*
X128100000Y-104100000D01*
X128100000Y-102000000D01*
X130500000Y-104500000D01*
G37*
%TD.AperFunction*%
%TO.N,unconnected-(J1-Pad3)*%
X140030073Y-101000000D02*
X138100000Y-99100000D01*
X139930073Y-99100000D01*
X142000000Y-99100000D01*
X140030073Y-101000000D01*
%TA.AperFunction,Conductor*%
G36*
X140030073Y-101000000D02*
G01*
X138100000Y-99100000D01*
X139930073Y-99100000D01*
X142000000Y-99100000D01*
X140030073Y-101000000D01*
G37*
%TD.AperFunction*%
X142500000Y-104500000D02*
X140000000Y-107000000D01*
X137500000Y-104500000D01*
X140000000Y-102000000D01*
X142500000Y-104500000D01*
%TA.AperFunction,Conductor*%
G36*
X142500000Y-104500000D02*
G01*
X140000000Y-107000000D01*
X137500000Y-104500000D01*
X140000000Y-102000000D01*
X142500000Y-104500000D01*
G37*
%TD.AperFunction*%
%TO.N,unconnected-(J1-Pad4)*%
X148500000Y-104500000D02*
X146000000Y-107000000D01*
X143500000Y-104500000D01*
X146000000Y-102000000D01*
X148500000Y-104500000D01*
%TA.AperFunction,Conductor*%
G36*
X148500000Y-104500000D02*
G01*
X146000000Y-107000000D01*
X143500000Y-104500000D01*
X146000000Y-102000000D01*
X148500000Y-104500000D01*
G37*
%TD.AperFunction*%
%TO.N,unconnected-(J1-Pad2)*%
X136500000Y-104500000D02*
X134000000Y-107000000D01*
X131500000Y-104500000D01*
X134000000Y-102000000D01*
X136500000Y-104500000D01*
%TA.AperFunction,Conductor*%
G36*
X136500000Y-104500000D02*
G01*
X134000000Y-107000000D01*
X131500000Y-104500000D01*
X134000000Y-102000000D01*
X136500000Y-104500000D01*
G37*
%TD.AperFunction*%
%TO.N,unconnected-(J1-Pad1)*%
X130500000Y-110500000D02*
X128000000Y-113000000D01*
X125500000Y-110500000D01*
X128000000Y-108000000D01*
X130500000Y-110500000D01*
%TA.AperFunction,Conductor*%
G36*
X130500000Y-110500000D02*
G01*
X128000000Y-113000000D01*
X125500000Y-110500000D01*
X128000000Y-108000000D01*
X130500000Y-110500000D01*
G37*
%TD.AperFunction*%
X128100000Y-100700000D02*
X128100000Y-100500000D01*
X128100000Y-99100000D01*
X129800000Y-99100000D01*
X128100000Y-100700000D01*
%TA.AperFunction,Conductor*%
G36*
X128100000Y-100700000D02*
G01*
X128100000Y-100500000D01*
X128100000Y-99100000D01*
X129800000Y-99100000D01*
X128100000Y-100700000D01*
G37*
%TD.AperFunction*%
%TO.N,unconnected-(J1-Pad2)*%
X134030073Y-101000000D02*
X132100000Y-99100000D01*
X133930073Y-99100000D01*
X135900000Y-99100000D01*
X134030073Y-101000000D01*
%TA.AperFunction,Conductor*%
G36*
X134030073Y-101000000D02*
G01*
X132100000Y-99100000D01*
X133930073Y-99100000D01*
X135900000Y-99100000D01*
X134030073Y-101000000D01*
G37*
%TD.AperFunction*%
%TO.N,unconnected-(J1-Pad7)*%
X151500000Y-107500000D02*
X149000000Y-110000000D01*
X146500000Y-107500000D01*
X149000000Y-105000000D01*
X151500000Y-107500000D01*
%TA.AperFunction,Conductor*%
G36*
X151500000Y-107500000D02*
G01*
X149000000Y-110000000D01*
X146500000Y-107500000D01*
X149000000Y-105000000D01*
X151500000Y-107500000D01*
G37*
%TD.AperFunction*%
X145500000Y-107500000D02*
X143000000Y-110000000D01*
X140500000Y-107500000D01*
X143000000Y-105000000D01*
X145500000Y-107500000D01*
%TA.AperFunction,Conductor*%
G36*
X145500000Y-107500000D02*
G01*
X143000000Y-110000000D01*
X140500000Y-107500000D01*
X143000000Y-105000000D01*
X145500000Y-107500000D01*
G37*
%TD.AperFunction*%
X139500000Y-107500000D02*
X137000000Y-110000000D01*
X134500000Y-107500000D01*
X137000000Y-105000000D01*
X139500000Y-107500000D01*
%TA.AperFunction,Conductor*%
G36*
X139500000Y-107500000D02*
G01*
X137000000Y-110000000D01*
X134500000Y-107500000D01*
X137000000Y-105000000D01*
X139500000Y-107500000D01*
G37*
%TD.AperFunction*%
%TO.N,unconnected-(J1-Pad6)*%
X151500000Y-101500000D02*
X149000000Y-104000000D01*
X146500000Y-101500000D01*
X149000000Y-99100000D01*
X151500000Y-101500000D01*
%TA.AperFunction,Conductor*%
G36*
X151500000Y-101500000D02*
G01*
X149000000Y-104000000D01*
X146500000Y-101500000D01*
X149000000Y-99100000D01*
X151500000Y-101500000D01*
G37*
%TD.AperFunction*%
X145500000Y-101500000D02*
X143000000Y-104000000D01*
X140500000Y-101500000D01*
X143000000Y-99100000D01*
X145500000Y-101500000D01*
%TA.AperFunction,Conductor*%
G36*
X145500000Y-101500000D02*
G01*
X143000000Y-104000000D01*
X140500000Y-101500000D01*
X143000000Y-99100000D01*
X145500000Y-101500000D01*
G37*
%TD.AperFunction*%
X139500000Y-101500000D02*
X137000000Y-104000000D01*
X134500000Y-101500000D01*
X137000000Y-99100000D01*
X139500000Y-101500000D01*
%TA.AperFunction,Conductor*%
G36*
X139500000Y-101500000D02*
G01*
X137000000Y-104000000D01*
X134500000Y-101500000D01*
X137000000Y-99100000D01*
X139500000Y-101500000D01*
G37*
%TD.AperFunction*%
X133500000Y-101500000D02*
X131000000Y-104000000D01*
X128500000Y-101500000D01*
X131000000Y-99100000D01*
X133500000Y-101500000D01*
%TA.AperFunction,Conductor*%
G36*
X133500000Y-101500000D02*
G01*
X131000000Y-104000000D01*
X128500000Y-101500000D01*
X131000000Y-99100000D01*
X133500000Y-101500000D01*
G37*
%TD.AperFunction*%
%TO.N,unconnected-(J1-Pad4)*%
X148500000Y-110500000D02*
X146000000Y-113000000D01*
X143500000Y-110500000D01*
X146000000Y-108000000D01*
X148500000Y-110500000D01*
%TA.AperFunction,Conductor*%
G36*
X148500000Y-110500000D02*
G01*
X146000000Y-113000000D01*
X143500000Y-110500000D01*
X146000000Y-108000000D01*
X148500000Y-110500000D01*
G37*
%TD.AperFunction*%
X148500000Y-116500000D02*
X146000000Y-119000000D01*
X143500000Y-116500000D01*
X146000000Y-114000000D01*
X148500000Y-116500000D01*
%TA.AperFunction,Conductor*%
G36*
X148500000Y-116500000D02*
G01*
X146000000Y-119000000D01*
X143500000Y-116500000D01*
X146000000Y-114000000D01*
X148500000Y-116500000D01*
G37*
%TD.AperFunction*%
X148500000Y-122500000D02*
X146000000Y-125000000D01*
X143500000Y-122500000D01*
X146000000Y-120000000D01*
X148500000Y-122500000D01*
%TA.AperFunction,Conductor*%
G36*
X148500000Y-122500000D02*
G01*
X146000000Y-125000000D01*
X143500000Y-122500000D01*
X146000000Y-120000000D01*
X148500000Y-122500000D01*
G37*
%TD.AperFunction*%
%TO.N,unconnected-(J1-Pad2)*%
X135800000Y-127800000D02*
X134000000Y-127800000D01*
X132200000Y-127800000D01*
X134000000Y-126000000D01*
X135800000Y-127800000D01*
%TA.AperFunction,Conductor*%
G36*
X135800000Y-127800000D02*
G01*
X134000000Y-127800000D01*
X132200000Y-127800000D01*
X134000000Y-126000000D01*
X135800000Y-127800000D01*
G37*
%TD.AperFunction*%
%TO.N,unconnected-(J1-Pad10)*%
X145500000Y-125500000D02*
X143000000Y-127900000D01*
X140500000Y-125500000D01*
X143000000Y-123000000D01*
X145500000Y-125500000D01*
%TA.AperFunction,Conductor*%
G36*
X145500000Y-125500000D02*
G01*
X143000000Y-127900000D01*
X140500000Y-125500000D01*
X143000000Y-123000000D01*
X145500000Y-125500000D01*
G37*
%TD.AperFunction*%
X139500000Y-125500000D02*
X137000000Y-127900000D01*
X134500000Y-125500000D01*
X137000000Y-123000000D01*
X139500000Y-125500000D01*
%TA.AperFunction,Conductor*%
G36*
X139500000Y-125500000D02*
G01*
X137000000Y-127900000D01*
X134500000Y-125500000D01*
X137000000Y-123000000D01*
X139500000Y-125500000D01*
G37*
%TD.AperFunction*%
X151500000Y-125500000D02*
X149000000Y-127900000D01*
X146500000Y-125500000D01*
X149000000Y-123000000D01*
X151500000Y-125500000D01*
%TA.AperFunction,Conductor*%
G36*
X151500000Y-125500000D02*
G01*
X149000000Y-127900000D01*
X146500000Y-125500000D01*
X149000000Y-123000000D01*
X151500000Y-125500000D01*
G37*
%TD.AperFunction*%
X133500000Y-125500000D02*
X131000000Y-127900000D01*
X128500000Y-125500000D01*
X131000000Y-123000000D01*
X133500000Y-125500000D01*
%TA.AperFunction,Conductor*%
G36*
X133500000Y-125500000D02*
G01*
X131000000Y-127900000D01*
X128500000Y-125500000D01*
X131000000Y-123000000D01*
X133500000Y-125500000D01*
G37*
%TD.AperFunction*%
%TO.N,unconnected-(J1-Pad1)*%
X130500000Y-116500000D02*
X128000000Y-119000000D01*
X125500000Y-116500000D01*
X128000000Y-114000000D01*
X130500000Y-116500000D01*
%TA.AperFunction,Conductor*%
G36*
X130500000Y-116500000D02*
G01*
X128000000Y-119000000D01*
X125500000Y-116500000D01*
X128000000Y-114000000D01*
X130500000Y-116500000D01*
G37*
%TD.AperFunction*%
%TO.N,unconnected-(J1-Pad9)*%
X133500000Y-119500000D02*
X131000000Y-122000000D01*
X128500000Y-119500000D01*
X131000000Y-117000000D01*
X133500000Y-119500000D01*
%TA.AperFunction,Conductor*%
G36*
X133500000Y-119500000D02*
G01*
X131000000Y-122000000D01*
X128500000Y-119500000D01*
X131000000Y-117000000D01*
X133500000Y-119500000D01*
G37*
%TD.AperFunction*%
%TO.N,unconnected-(J1-Pad5)*%
X154500000Y-116500000D02*
X152000000Y-119000000D01*
X149500000Y-116500000D01*
X152000000Y-114000000D01*
X154500000Y-116500000D01*
%TA.AperFunction,Conductor*%
G36*
X154500000Y-116500000D02*
G01*
X152000000Y-119000000D01*
X149500000Y-116500000D01*
X152000000Y-114000000D01*
X154500000Y-116500000D01*
G37*
%TD.AperFunction*%
%TO.N,unconnected-(J1-Pad9)*%
X151500000Y-119500000D02*
X149000000Y-122000000D01*
X146500000Y-119500000D01*
X149000000Y-117000000D01*
X151500000Y-119500000D01*
%TA.AperFunction,Conductor*%
G36*
X151500000Y-119500000D02*
G01*
X149000000Y-122000000D01*
X146500000Y-119500000D01*
X149000000Y-117000000D01*
X151500000Y-119500000D01*
G37*
%TD.AperFunction*%
%TO.N,unconnected-(J1-Pad3)*%
X142500000Y-110500000D02*
X140000000Y-113000000D01*
X137500000Y-110500000D01*
X140000000Y-108000000D01*
X142500000Y-110500000D01*
%TA.AperFunction,Conductor*%
G36*
X142500000Y-110500000D02*
G01*
X140000000Y-113000000D01*
X137500000Y-110500000D01*
X140000000Y-108000000D01*
X142500000Y-110500000D01*
G37*
%TD.AperFunction*%
%TO.N,unconnected-(J1-Pad5)*%
X154500000Y-110500000D02*
X152000000Y-113000000D01*
X149500000Y-110500000D01*
X152000000Y-108000000D01*
X154500000Y-110500000D01*
%TA.AperFunction,Conductor*%
G36*
X154500000Y-110500000D02*
G01*
X152000000Y-113000000D01*
X149500000Y-110500000D01*
X152000000Y-108000000D01*
X154500000Y-110500000D01*
G37*
%TD.AperFunction*%
%TO.N,unconnected-(J1-Pad2)*%
X136500000Y-116500000D02*
X134000000Y-119000000D01*
X131500000Y-116500000D01*
X134000000Y-114000000D01*
X136500000Y-116500000D01*
%TA.AperFunction,Conductor*%
G36*
X136500000Y-116500000D02*
G01*
X134000000Y-119000000D01*
X131500000Y-116500000D01*
X134000000Y-114000000D01*
X136500000Y-116500000D01*
G37*
%TD.AperFunction*%
%TO.N,unconnected-(J1-Pad8)*%
X139500000Y-113500000D02*
X137000000Y-116000000D01*
X134500000Y-113500000D01*
X137000000Y-111000000D01*
X139500000Y-113500000D01*
%TA.AperFunction,Conductor*%
G36*
X139500000Y-113500000D02*
G01*
X137000000Y-116000000D01*
X134500000Y-113500000D01*
X137000000Y-111000000D01*
X139500000Y-113500000D01*
G37*
%TD.AperFunction*%
X133500000Y-113500000D02*
X131000000Y-116000000D01*
X128500000Y-113500000D01*
X131000000Y-111000000D01*
X133500000Y-113500000D01*
%TA.AperFunction,Conductor*%
G36*
X133500000Y-113500000D02*
G01*
X131000000Y-116000000D01*
X128500000Y-113500000D01*
X131000000Y-111000000D01*
X133500000Y-113500000D01*
G37*
%TD.AperFunction*%
%TO.N,unconnected-(J1-Pad2)*%
X136500000Y-110500000D02*
X134000000Y-113000000D01*
X131500000Y-110500000D01*
X134000000Y-108000000D01*
X136500000Y-110500000D01*
%TA.AperFunction,Conductor*%
G36*
X136500000Y-110500000D02*
G01*
X134000000Y-113000000D01*
X131500000Y-110500000D01*
X134000000Y-108000000D01*
X136500000Y-110500000D01*
G37*
%TD.AperFunction*%
%TO.N,unconnected-(J1-Pad3)*%
X142500000Y-122500000D02*
X140000000Y-125000000D01*
X137500000Y-122500000D01*
X140000000Y-120000000D01*
X142500000Y-122500000D01*
%TA.AperFunction,Conductor*%
G36*
X142500000Y-122500000D02*
G01*
X140000000Y-125000000D01*
X137500000Y-122500000D01*
X140000000Y-120000000D01*
X142500000Y-122500000D01*
G37*
%TD.AperFunction*%
X142500000Y-116500000D02*
X140000000Y-119000000D01*
X137500000Y-116500000D01*
X140000000Y-114000000D01*
X142500000Y-116500000D01*
%TA.AperFunction,Conductor*%
G36*
X142500000Y-116500000D02*
G01*
X140000000Y-119000000D01*
X137500000Y-116500000D01*
X140000000Y-114000000D01*
X142500000Y-116500000D01*
G37*
%TD.AperFunction*%
%TO.N,unconnected-(J1-Pad9)*%
X145500000Y-119500000D02*
X143000000Y-122000000D01*
X140500000Y-119500000D01*
X143000000Y-117000000D01*
X145500000Y-119500000D01*
%TA.AperFunction,Conductor*%
G36*
X145500000Y-119500000D02*
G01*
X143000000Y-122000000D01*
X140500000Y-119500000D01*
X143000000Y-117000000D01*
X145500000Y-119500000D01*
G37*
%TD.AperFunction*%
%TO.N,unconnected-(J1-Pad8)*%
X145500000Y-113500000D02*
X143000000Y-116000000D01*
X140500000Y-113500000D01*
X143000000Y-111000000D01*
X145500000Y-113500000D01*
%TA.AperFunction,Conductor*%
G36*
X145500000Y-113500000D02*
G01*
X143000000Y-116000000D01*
X140500000Y-113500000D01*
X143000000Y-111000000D01*
X145500000Y-113500000D01*
G37*
%TD.AperFunction*%
X151500000Y-113500000D02*
X149000000Y-116000000D01*
X146500000Y-113500000D01*
X149000000Y-111000000D01*
X151500000Y-113500000D01*
%TA.AperFunction,Conductor*%
G36*
X151500000Y-113500000D02*
G01*
X149000000Y-116000000D01*
X146500000Y-113500000D01*
X149000000Y-111000000D01*
X151500000Y-113500000D01*
G37*
%TD.AperFunction*%
%TO.N,unconnected-(J1-Pad2)*%
X136500000Y-122500000D02*
X134000000Y-125000000D01*
X131500000Y-122500000D01*
X134000000Y-120000000D01*
X136500000Y-122500000D01*
%TA.AperFunction,Conductor*%
G36*
X136500000Y-122500000D02*
G01*
X134000000Y-125000000D01*
X131500000Y-122500000D01*
X134000000Y-120000000D01*
X136500000Y-122500000D01*
G37*
%TD.AperFunction*%
%TO.N,unconnected-(J1-Pad9)*%
X139500000Y-119500000D02*
X137000000Y-122000000D01*
X134500000Y-119500000D01*
X137000000Y-117000000D01*
X139500000Y-119500000D01*
%TA.AperFunction,Conductor*%
G36*
X139500000Y-119500000D02*
G01*
X137000000Y-122000000D01*
X134500000Y-119500000D01*
X137000000Y-117000000D01*
X139500000Y-119500000D01*
G37*
%TD.AperFunction*%
%TO.N,unconnected-(J1-Pad8)*%
X125100000Y-113500000D02*
X155300000Y-113500000D01*
%TO.N,unconnected-(J1-Pad5)*%
X151900000Y-100500000D02*
X151900000Y-100700000D01*
X150200000Y-99100000D01*
X151900000Y-99100000D01*
X151900000Y-100500000D01*
%TA.AperFunction,Conductor*%
G36*
X151900000Y-100500000D02*
G01*
X151900000Y-100700000D01*
X150200000Y-99100000D01*
X151900000Y-99100000D01*
X151900000Y-100500000D01*
G37*
%TD.AperFunction*%
%TD*%
D11*
%TO.N,unconnected-(J1-Pad3)*%
X140000000Y-120100000D03*
%TO.N,unconnected-(J1-Pad4)*%
X146000000Y-120100000D03*
%TO.N,unconnected-(J1-Pad2)*%
X134000000Y-120100000D03*
%TO.N,unconnected-(J1-Pad4)*%
X146000000Y-114100000D03*
%TO.N,unconnected-(J1-Pad3)*%
X140000000Y-108100000D03*
%TO.N,unconnected-(J1-Pad5)*%
X152000000Y-120100000D03*
%TO.N,unconnected-(J1-Pad4)*%
X146000000Y-126100000D03*
%TO.N,unconnected-(J1-Pad5)*%
X152000000Y-108100000D03*
%TO.N,unconnected-(J1-Pad3)*%
X140000000Y-126100000D03*
%TO.N,unconnected-(J1-Pad2)*%
X134000000Y-126100000D03*
%TO.N,unconnected-(J1-Pad4)*%
X146000000Y-108100000D03*
%TO.N,unconnected-(J1-Pad1)*%
X128000000Y-120100000D03*
%TO.N,unconnected-(J1-Pad2)*%
X134000000Y-114100000D03*
%TO.N,unconnected-(J1-Pad1)*%
X128000000Y-114100000D03*
%TO.N,unconnected-(J1-Pad2)*%
X134000000Y-108100000D03*
%TO.N,unconnected-(J1-Pad3)*%
X140000000Y-114100000D03*
%TO.N,unconnected-(J1-Pad1)*%
X128000000Y-108100000D03*
%TO.N,unconnected-(J1-Pad3)*%
X140000000Y-102100000D03*
%TO.N,unconnected-(J1-Pad5)*%
X152600000Y-112000000D03*
X150900000Y-112000000D03*
%TO.N,unconnected-(J1-Pad4)*%
X146000000Y-106900000D03*
%TO.N,unconnected-(J1-Pad10)*%
X149000000Y-125500000D03*
%TO.N,unconnected-(J1-Pad8)*%
X149000000Y-113500000D03*
%TO.N,unconnected-(J1-Pad9)*%
X149000000Y-119500000D03*
%TO.N,unconnected-(J1-Pad6)*%
X149000000Y-101500000D03*
%TO.N,unconnected-(J1-Pad7)*%
X149000000Y-107500000D03*
%TO.N,unconnected-(J1-Pad5)*%
X150900000Y-115000000D03*
%TO.N,unconnected-(J1-Pad1)*%
X128500000Y-124500000D03*
X128500000Y-126500000D03*
%TO.N,unconnected-(J1-Pad5)*%
X151500000Y-126500000D03*
X151500000Y-124500000D03*
X151500000Y-102500000D03*
X151500000Y-100500000D03*
%TO.N,unconnected-(J1-Pad1)*%
X128500000Y-100500000D03*
X128500000Y-102500000D03*
%TO.N,unconnected-(J1-Pad4)*%
X146000000Y-118900000D03*
%TO.N,unconnected-(J1-Pad2)*%
X134000000Y-118900000D03*
%TO.N,unconnected-(J1-Pad3)*%
X140000000Y-118900000D03*
%TO.N,unconnected-(J1-Pad1)*%
X128000000Y-118900000D03*
%TO.N,unconnected-(J1-Pad3)*%
X140000000Y-100900000D03*
%TO.N,unconnected-(J1-Pad4)*%
X146000000Y-100900000D03*
%TO.N,unconnected-(J1-Pad3)*%
X140000000Y-106900000D03*
%TO.N,unconnected-(J1-Pad4)*%
X146000000Y-112900000D03*
%TO.N,unconnected-(J1-Pad5)*%
X152000000Y-106900000D03*
X152000000Y-118900000D03*
%TO.N,unconnected-(J1-Pad4)*%
X146000000Y-124900000D03*
%TO.N,unconnected-(J1-Pad3)*%
X140000000Y-124900000D03*
%TO.N,unconnected-(J1-Pad2)*%
X134000000Y-124900000D03*
%TO.N,unconnected-(J1-Pad1)*%
X128000000Y-112900000D03*
%TO.N,unconnected-(J1-Pad3)*%
X140000000Y-112900000D03*
%TO.N,unconnected-(J1-Pad2)*%
X134000000Y-112900000D03*
%TO.N,unconnected-(J1-Pad1)*%
X128000000Y-106900000D03*
%TO.N,unconnected-(J1-Pad2)*%
X134000000Y-106900000D03*
X134000000Y-100900000D03*
X134000000Y-102100000D03*
%TO.N,unconnected-(J1-Pad4)*%
X146000000Y-102100000D03*
%TD*%
D10*
%TO.N,unconnected-(J1-Pad7)*%
X125000000Y-107500000D02*
X149000000Y-107500000D01*
X149000000Y-107500000D02*
X155000000Y-107500000D01*
%TO.N,unconnected-(J1-Pad6)*%
X149000000Y-101500000D02*
X131000000Y-101500000D01*
%TO.N,unconnected-(J1-Pad9)*%
X149000000Y-119500000D02*
X155000000Y-119500000D01*
%TO.N,unconnected-(J1-Pad10)*%
X149000000Y-125500000D02*
X131000000Y-125500000D01*
%TO.N,unconnected-(J1-Pad9)*%
X125000000Y-119500000D02*
X149000000Y-119500000D01*
%TD*%
M02*
