M48
; DRILL file {KiCad 9.0.0} date 2025-04-18T16:03:11-0400
; FORMAT={-:-/ absolute / metric / decimal}
; #@! TF.CreationDate,2025-04-18T16:03:11-04:00
; #@! TF.GenerationSoftware,Kicad,Pcbnew,9.0.0
; #@! TF.FileFunction,Plated,1,2,PTH
FMAT,2
METRIC
; #@! TA.AperFunction,Plated,PTH,ViaDrill
T1C0.300
%
G90
G05
T1
X128.0Y-106.9
X128.0Y-108.1
X128.0Y-112.9
X128.0Y-114.1
X128.0Y-118.9
X128.0Y-120.1
X128.5Y-100.5
X128.5Y-102.5
X128.5Y-124.5
X128.5Y-126.5
X134.0Y-100.9
X134.0Y-102.1
X134.0Y-106.9
X134.0Y-108.1
X134.0Y-112.9
X134.0Y-114.1
X134.0Y-118.9
X134.0Y-120.1
X134.0Y-124.9
X134.0Y-126.1
X140.0Y-100.9
X140.0Y-102.1
X140.0Y-106.9
X140.0Y-108.1
X140.0Y-112.9
X140.0Y-114.1
X140.0Y-118.9
X140.0Y-120.1
X140.0Y-124.9
X140.0Y-126.1
X146.0Y-100.9
X146.0Y-102.1
X146.0Y-106.9
X146.0Y-108.1
X146.0Y-112.9
X146.0Y-114.1
X146.0Y-118.9
X146.0Y-120.1
X146.0Y-124.9
X146.0Y-126.1
X149.0Y-101.5
X149.0Y-107.5
X149.0Y-113.5
X149.0Y-119.5
X149.0Y-125.5
X150.9Y-112.0
X150.9Y-115.0
X151.5Y-100.5
X151.5Y-102.5
X151.5Y-124.5
X151.5Y-126.5
X152.0Y-106.9
X152.0Y-108.1
X152.0Y-118.9
X152.0Y-120.1
X152.6Y-112.0
M30
